<svg width="22" height="22" viewBox="0 0 22 22" fill="none" xmlns="http://www.w3.org/2000/svg">
<path d="M9.58597 1.09951C9.93996 0.745988 10.4136 0.537967 10.9134 0.516493C11.4132 0.495019 11.903 0.661651 12.286 0.983514L12.414 1.10051L14.314 2.99951H17C17.5044 2.99961 17.9901 3.19028 18.3599 3.53335C18.7297 3.87642 18.9561 4.34653 18.994 4.84951L19 4.99951V7.68551L20.9 9.58551C21.2538 9.93955 21.462 10.4134 21.4834 10.9134C21.5049 11.4135 21.3381 11.9034 21.016 12.2865L20.899 12.4135L18.999 14.3135V16.9995C18.9991 17.5041 18.8086 17.9901 18.4655 18.3601C18.1224 18.73 17.6521 18.9567 17.149 18.9945L17 18.9995H14.315L12.415 20.8995C12.0609 21.2533 11.5871 21.4615 11.087 21.483C10.587 21.5045 10.097 21.3377 9.71397 21.0155L9.58697 20.8995L7.68697 18.9995H4.99997C4.49539 18.9997 4.0094 18.8091 3.63942 18.466C3.26944 18.1229 3.04281 17.6527 3.00497 17.1495L2.99997 16.9995V14.3135L1.09997 12.4135C0.746165 12.0595 0.537968 11.5856 0.516492 11.0856C0.495016 10.5855 0.661821 10.0956 0.98397 9.71251L1.09997 9.58551L2.99997 7.68551V4.99951C3.00006 4.49511 3.19074 4.00937 3.53381 3.6396C3.87687 3.26983 4.34699 3.04334 4.84997 3.00551L4.99997 2.99951H7.68597L9.58597 1.09951ZM11 2.51551L9.09997 4.41551C8.7678 4.74716 8.32956 4.95142 7.86197 4.99251L7.68597 4.99951H4.99997V7.68551C5.00009 8.15541 4.83476 8.61034 4.53297 8.97051L4.41397 9.10051L2.51397 11.0005L4.41397 12.8995C4.74599 13.2315 4.9506 13.6698 4.99197 14.1375L4.99997 14.3135V16.9995H7.68597C8.15586 16.9994 8.6108 17.1647 8.97097 17.4665L9.10097 17.5855L11 19.4855L12.9 17.5855C13.232 17.2535 13.6702 17.0489 14.138 17.0075L14.314 16.9995H17V14.3135C16.9998 13.8436 17.1652 13.3887 17.467 13.0285L17.586 12.8985L19.486 10.9995L17.586 9.09951C17.254 8.76749 17.0493 8.32924 17.008 7.86151L17 7.68551V4.99951H14.314C13.8441 4.99963 13.3891 4.8343 13.029 4.53251L12.899 4.41351L10.999 2.51351L11 2.51551ZM14.08 7.98351C14.2599 7.80417 14.5014 7.70004 14.7554 7.69229C15.0093 7.68453 15.2567 7.77373 15.4472 7.94176C15.6378 8.1098 15.7573 8.34406 15.7814 8.59699C15.8055 8.84991 15.7324 9.10252 15.577 9.30351L15.493 9.39751L10.613 14.2775C10.4224 14.4683 10.1685 14.5824 9.89933 14.5983C9.63018 14.6141 9.36458 14.5306 9.15297 14.3635L9.05697 14.2785L6.65297 11.8745C6.47172 11.695 6.36594 11.4529 6.35729 11.198C6.34864 10.943 6.43777 10.6943 6.60644 10.5029C6.7751 10.3115 7.01055 10.1918 7.26459 10.1683C7.51863 10.1448 7.77205 10.2193 7.97297 10.3765L8.06697 10.4595L9.83497 12.2275L14.08 7.98351Z" fill="white"/>
</svg>
