<svg width="200" height="157" viewBox="0 0 200 157" fill="none" xmlns="http://www.w3.org/2000/svg">
<path d="M142.857 63.3923H57.1431C56.1609 63.3923 55.3574 64.1959 55.3574 65.178V154.909C55.3574 155.892 56.1609 156.695 57.1431 156.695H142.857C143.839 156.695 144.642 155.892 144.642 154.909V65.178C144.642 64.1959 143.839 63.3923 142.857 63.3923ZM69.643 77.6779H130.357V103.794H69.643V77.6779ZM130.357 142.41H69.643V116.294H130.357V142.41Z" fill="white"/>
<path d="M80.3572 130.802C80.3572 132.697 81.1097 134.514 82.4493 135.853C83.7888 137.193 85.6056 137.945 87.5 137.945C89.3944 137.945 91.2112 137.193 92.5507 135.853C93.8902 134.514 94.6428 132.697 94.6428 130.802C94.6428 128.908 93.8902 127.091 92.5507 125.752C91.2112 124.412 89.3944 123.66 87.5 123.66C85.6056 123.66 83.7888 124.412 82.4493 125.752C81.1097 127.091 80.3572 128.908 80.3572 130.802ZM80.3572 91.0707C80.3572 92.965 81.1097 94.7818 82.4493 96.1214C83.7888 97.4609 85.6056 98.2135 87.5 98.2135C89.3944 98.2135 91.2112 97.4609 92.5507 96.1214C93.8902 94.7818 94.6428 92.965 94.6428 91.0707C94.6428 89.1763 93.8902 87.3595 92.5507 86.0199C91.2112 84.6804 89.3944 83.9279 87.5 83.9279C85.6056 83.9279 83.7888 84.6804 82.4493 86.0199C81.1097 87.3595 80.3572 89.1763 80.3572 91.0707Z" fill="white"/>
<path d="M166.83 46.1827C156.607 19.1963 130.558 0 100.045 0C69.5314 0 43.4825 19.174 33.2593 46.1603C14.0407 51.2273 -0.110951 68.7941 0.000655518 89.6421C0.134583 112.946 18.2148 131.896 40.9825 133.928C42.0316 134.017 42.9244 133.191 42.9244 132.142V118.66C42.9244 117.767 42.2548 117.008 41.3619 116.896C35.3352 116.137 29.6433 113.504 25.2683 109.196C19.9112 103.95 16.9648 96.8965 16.9648 89.4189C16.9648 83.169 18.996 77.2762 22.813 72.3655C26.5406 67.5888 31.7861 64.129 37.5673 62.6111L46.0271 60.379L49.1297 52.1871C51.0494 47.0978 53.7279 42.3211 57.0984 38.0131C60.4243 33.7274 64.3751 29.9774 68.7948 26.8525C77.9688 20.4016 88.7723 16.9865 100.045 16.9865C111.317 16.9865 122.12 20.4016 131.294 26.8748C135.736 29.9998 139.665 33.7497 142.991 38.0354C146.361 42.3434 149.04 47.1202 150.959 52.2094L154.04 60.379L162.477 62.6111C174.575 65.8254 183.035 76.8297 183.035 89.3966C183.035 96.8966 180.089 103.928 174.731 109.173C170.379 113.459 164.709 116.115 158.682 116.874C157.79 116.986 157.142 117.745 157.142 118.637V132.142C157.142 133.191 158.057 134.017 159.107 133.928C181.807 131.874 199.843 112.946 199.999 89.6868C200.133 68.8387 186.004 51.2719 166.83 46.1827Z" fill="white"/>
</svg>
