<svg width="56" height="59" viewBox="0 0 56 59" fill="none" xmlns="http://www.w3.org/2000/svg">
<path d="M53.2 5.9L50.96 8.14762C47.6 5.05714 43.4 3.37143 39.2 3.37143C35 3.37143 30.8 5.05714 27.44 8.14762L25.2 5.9C29.12 1.96667 34.16 0 39.2 0C44.24 0 49.28 1.96667 53.2 5.9ZM39.2 6.4619C42.56 6.4619 45.92 7.86667 48.44 10.3952L46.2 12.6429C44.24 10.6762 41.72 9.83333 39.2 9.83333C36.68 9.83333 34.16 10.6762 32.2 12.6429L29.96 10.3952C32.48 7.86667 35.84 6.4619 39.2 6.4619ZM42 25.2857H47.6C49.084 25.2857 50.512 25.8757 51.548 26.9433C52.612 27.9829 53.2 29.4157 53.2 30.9048V36.5238C53.2 38.0129 52.612 39.4457 51.548 40.4852C50.512 41.5529 49.084 42.1429 47.6 42.1429H30.8V47.7619H33.6C35.14 47.7619 36.4 49.0262 36.4 50.5714H56V56.1905H36.4C36.4 57.7357 35.14 59 33.6 59H22.4C20.86 59 19.6 57.7357 19.6 56.1905H0V50.5714H19.6C19.6 49.0262 20.86 47.7619 22.4 47.7619H25.2V42.1429H8.4C6.916 42.1429 5.488 41.5529 4.452 40.4852C3.388 39.4457 2.8 38.0129 2.8 36.5238V30.9048C2.8 29.4157 3.388 27.9829 4.452 26.9433C5.488 25.8757 6.916 25.2857 8.4 25.2857H36.4V14.0476H42V25.2857ZM8.4 36.5238H14V30.9048H8.4V36.5238ZM18.2 36.5238H23.8V30.9048H18.2V36.5238ZM28 36.5238H33.6V30.9048H28V36.5238Z" fill="white"/>
</svg>
