<svg width="77" height="77" viewBox="0 0 77 77" fill="none" xmlns="http://www.w3.org/2000/svg">
<path d="M55.0749 38.5002C55.0745 41.713 54.1248 44.8542 52.345 47.5291C50.5653 50.204 48.0349 52.2934 45.0716 53.535C42.1083 54.7765 38.8442 55.1149 35.6893 54.5075C32.5344 53.9001 29.6292 52.3741 27.3386 50.1211C25.0481 47.8682 23.4743 44.9886 22.8149 41.8441C22.1554 38.6997 22.4398 35.4305 23.6322 32.447C24.8246 29.4636 26.872 26.8991 29.5171 25.0754C32.1622 23.2517 35.2872 22.2501 38.4996 22.1966C40.6634 22.1605 42.8127 22.5556 44.8222 23.3588C46.8317 24.1619 48.6612 25.3571 50.204 26.8747C51.7469 28.3922 52.9721 30.2017 53.8084 32.1977C54.6447 34.1936 55.0752 36.3361 55.0749 38.5002Z" stroke="white" stroke-width="6" stroke-linecap="round" stroke-linejoin="round"/>
<path d="M55.0749 38.5002V45.5651C55.0749 64.5316 84.8018 46.652 69.2047 20.8923C66.064 15.5287 61.5815 11.0748 56.1979 7.9685C50.8143 4.86221 44.715 3.21051 38.4996 3.17578C33.2779 3.19191 28.1248 4.36548 23.4111 6.61201C18.6973 8.85855 14.5403 12.1222 11.2391 16.168C7.93797 20.2138 5.57483 24.9412 4.31979 30.0098C3.06476 35.0784 2.94904 40.3623 3.98097 45.481C5.01291 50.5997 7.16682 55.426 10.2877 59.6124C13.4085 63.7989 17.4187 67.2414 22.0296 69.6921C26.6404 72.1429 31.7373 73.5409 36.9532 73.7856C42.1692 74.0303 47.3746 73.1156 52.1946 71.1073" stroke="white" stroke-width="6" stroke-linecap="round" stroke-linejoin="round"/>
</svg>
