<svg width="20" height="16" viewBox="0 0 20 16" fill="none" xmlns="http://www.w3.org/2000/svg">
<path d="M18 0C18.5304 0 19.0391 0.210714 19.4142 0.585786C19.7893 0.960859 20 1.46957 20 2V6C19.4696 6 18.9609 6.21071 18.5858 6.58579C18.2107 6.96086 18 7.46957 18 8C18 8.53043 18.2107 9.03914 18.5858 9.41421C18.9609 9.78929 19.4696 10 20 10V14C20 14.5304 19.7893 15.0391 19.4142 15.4142C19.0391 15.7893 18.5304 16 18 16H2C1.46957 16 0.96086 15.7893 0.585787 15.4142C0.210714 15.0391 0 14.5304 0 14V10C0.530433 10 1.03914 9.78929 1.41421 9.41421C1.78929 9.03914 2 8.53043 2 8C2 7.46957 1.78929 6.96086 1.41421 6.58579C1.03914 6.21071 0.530433 6 0 6V2C0 1.46957 0.210714 0.960859 0.585787 0.585786C0.96086 0.210714 1.46957 0 2 0H18ZM6.5 3L5 4.5L13.5 13L15 11.5L6.5 3ZM13.19 3.04C12.21 3.04 11.42 3.83 11.42 4.81C11.42 5.27943 11.6065 5.72964 11.9384 6.06158C12.2704 6.39352 12.7206 6.58 13.19 6.58C14.17 6.58 14.96 5.79 14.96 4.81C14.96 4.34057 14.7735 3.89036 14.4416 3.55842C14.1096 3.22648 13.6594 3.04 13.19 3.04ZM6.81 9.42C5.83 9.42 5.04 10.21 5.04 11.19C5.04 11.6594 5.22648 12.1096 5.55842 12.4416C5.89036 12.7735 6.34057 12.96 6.81 12.96C7.79 12.96 8.58 12.17 8.58 11.19C8.58 10.7206 8.39352 10.2704 8.06158 9.93842C7.72964 9.60648 7.27943 9.42 6.81 9.42Z" fill="white"/>
</svg>
