<svg width="20" height="20" viewBox="0 0 20 20" fill="none" xmlns="http://www.w3.org/2000/svg">
<path d="M10 0.599609C13.3804 0.599609 15.298 2.90721 15.5764 5.69481H15.6604C17.5024 5.69481 19.0492 6.99441 19.48 8.75121C19.2759 8.62653 19.063 8.51704 18.8428 8.42361C18.5371 8.29427 18.2222 8.18758 17.9008 8.10441C17.6553 7.73469 17.3227 7.431 16.9322 7.22007C16.5418 7.00914 16.1054 6.89745 15.6616 6.89481H15.5764C15.2789 6.89481 14.9921 6.78432 14.7714 6.58476C14.5508 6.3852 14.4122 6.11081 14.3824 5.81481C14.14 3.38961 12.5308 1.79961 10 1.79961C7.46322 1.79961 5.86122 3.37881 5.61762 5.81361C5.58815 6.10982 5.44964 6.38451 5.22899 6.58431C5.00834 6.78412 4.7213 6.89478 4.42362 6.89481H4.33962C2.83242 6.89481 1.60002 8.16441 1.60002 9.74721C1.60002 11.3312 2.83362 12.5996 4.33842 12.5996H10V13.7996H4.33842C2.16282 13.7996 0.400024 11.9852 0.400024 9.74721C0.400024 7.58361 2.04762 5.81601 4.12242 5.70081L4.42362 5.69481C4.70442 2.88921 6.61962 0.599609 10 0.599609ZM18.9652 14.1392C17.9932 14.6936 16.7296 14.9996 15.4 14.9996C14.0704 14.9996 12.808 14.6936 11.8348 14.1392C11.6116 14.0118 11.3992 13.8661 11.2 13.7036V17.3996C11.2 18.7256 13.0804 19.7996 15.4 19.7996C17.7196 19.7996 19.6 18.7256 19.6 17.3996V13.7036C19.4008 13.8661 19.1885 14.0118 18.9652 14.1392ZM15.4 8.99961C13.0804 8.99961 11.2 10.0736 11.2 11.3996C11.2 12.7256 13.0804 13.7996 15.4 13.7996C17.7196 13.7996 19.6 12.7256 19.6 11.3996C19.6 10.0736 17.7196 8.99961 15.4 8.99961Z" fill="white"/>
</svg>
