<?xml version="1.0" encoding="UTF-8"?>
<svg xmlns="http://www.w3.org/2000/svg" width="15" height="10" viewBox="0 0 15 10" fill="none">
  <path fill-rule="evenodd" clip-rule="evenodd" d="M7.5 0C4.09091 0 1.17955 2.07333 0 5C1.17955 7.92667 4.09091 10 7.5 10C10.9091 10 13.8205 7.92667 15 5C13.8205 2.07333 10.9091 0 7.5 0ZM7.5 8.33333C5.61818 8.33333 4.09091 6.84 4.09091 5C4.09091 3.16 5.61818 1.66667 7.5 1.66667C9.38182 1.66667 10.9091 3.16 10.9091 5C10.9091 6.84 9.38182 8.33333 7.5 8.33333ZM7.50001 3C6.3682 3 5.45456 3.89333 5.45456 5C5.45456 6.10667 6.3682 7 7.50001 7C8.63183 7 9.54547 6.10667 9.54547 5C9.54547 3.89333 8.63183 3 7.50001 3Z" fill="#C5D9E8"></path>
</svg>
