<svg width="41" height="31" viewBox="0 0 41 31" fill="none" xmlns="http://www.w3.org/2000/svg">
<g clip-path="url(#clip0_1151_11428)">
<path d="M1.95239 19.522C1.57092 19.522 1.25727 19.4118 1.01143 19.1914C0.774074 18.9625 0.655396 18.6828 0.655396 18.3522C0.655396 18.0131 0.774074 17.7291 1.01143 17.5002C1.25727 17.2713 1.57092 17.1569 1.95239 17.1569C2.32539 17.1569 2.63056 17.2713 2.86792 17.5002C3.11375 17.7291 3.23668 18.0131 3.23668 18.3522C3.23668 18.6828 3.11375 18.9625 2.86792 19.1914C2.63056 19.4118 2.32539 19.522 1.95239 19.522ZM4.15509 14.9444C4.15509 14.0628 4.34583 13.2786 4.7273 12.592C5.10877 11.8968 5.63857 11.3586 6.31676 10.9771C7.00341 10.5871 7.77906 10.3922 8.64373 10.3922C9.70336 10.3922 10.6104 10.6719 11.3649 11.2314C12.1193 11.7909 12.6237 12.5538 12.878 13.5202H10.4875C10.3095 13.1472 10.0552 12.8632 9.72456 12.6683C9.40241 12.4733 9.03366 12.3758 8.6183 12.3758C7.9486 12.3758 7.40605 12.6089 6.99069 13.0752C6.5753 13.5414 6.36762 14.1645 6.36762 14.9444C6.36762 15.7243 6.5753 16.3473 6.99069 16.8136C7.40605 17.2798 7.9486 17.5129 8.6183 17.5129C9.03366 17.5129 9.40241 17.4155 9.72456 17.2205C10.0552 17.0255 10.3095 16.7415 10.4875 16.3685H12.878C12.6237 17.3349 12.1193 18.0979 11.3649 18.6574C10.6104 19.2084 9.70336 19.4839 8.64373 19.4839C7.77906 19.4839 7.00341 19.2931 6.31676 18.9117C5.63857 18.5217 5.10877 17.9834 4.7273 17.2968C4.34583 16.6101 4.15509 15.826 4.15509 14.9444ZM18.4312 19.5093C17.592 19.5093 16.8206 19.3143 16.117 18.9244C15.4218 18.5344 14.8666 17.9919 14.4512 17.2968C14.0443 16.5932 13.8409 15.8048 13.8409 14.9317C13.8409 14.0585 14.0443 13.2744 14.4512 12.5793C14.8666 11.8841 15.4218 11.3416 16.117 10.9517C16.8206 10.5617 17.592 10.3667 18.4312 10.3667C19.2704 10.3667 20.0376 10.5617 20.7327 10.9517C21.4363 11.3416 21.9874 11.8841 22.3858 12.5793C22.7927 13.2744 22.9961 14.0585 22.9961 14.9317C22.9961 15.8048 22.7927 16.5932 22.3858 17.2968C21.9789 17.9919 21.4279 18.5344 20.7327 18.9244C20.0376 19.3143 19.2704 19.5093 18.4312 19.5093ZM18.4312 17.5257C19.1433 17.5257 19.7113 17.2883 20.1351 16.8136C20.5674 16.3389 20.7836 15.7115 20.7836 14.9317C20.7836 14.1433 20.5674 13.516 20.1351 13.0497C19.7113 12.575 19.1433 12.3377 18.4312 12.3377C17.7106 12.3377 17.1342 12.5708 16.7019 13.037C16.278 13.5033 16.0661 14.1348 16.0661 14.9317C16.0661 15.72 16.278 16.3516 16.7019 16.8263C17.1342 17.2925 17.7106 17.5257 18.4312 17.5257ZM25.223 19.522C24.8415 19.522 24.528 19.4118 24.282 19.1914C24.0448 18.9625 23.926 18.6828 23.926 18.3522C23.926 18.0131 24.0448 17.7291 24.282 17.5002C24.528 17.2713 24.8415 17.1569 25.223 17.1569C25.5961 17.1569 25.9013 17.2713 26.1385 17.5002C26.3845 17.7291 26.5073 18.0131 26.5073 18.3522C26.5073 18.6828 26.3845 18.9625 26.1385 19.1914C25.9013 19.4118 25.5961 19.522 25.223 19.522ZM29.969 10.4939V19.4203H27.7946V10.4939H29.969ZM34.8888 10.4939C35.8297 10.4939 36.6521 10.6804 37.3556 11.0534C38.0594 11.4264 38.6017 11.952 38.9832 12.6301C39.3732 13.2998 39.5681 14.0755 39.5681 14.9571C39.5681 15.8302 39.3732 16.6059 38.9832 17.2841C38.6017 17.9622 38.055 18.4878 37.3429 18.8608C36.6394 19.2338 35.8214 19.4203 34.8888 19.4203H31.5445V10.4939H34.8888ZM34.7489 17.5384C35.5712 17.5384 36.2112 17.3137 36.6689 16.8644C37.1267 16.4152 37.3556 15.7794 37.3556 14.9571C37.3556 14.1348 37.1267 13.4948 36.6689 13.037C36.2112 12.5793 35.5712 12.3504 34.7489 12.3504H33.7189V17.5384H34.7489Z" fill="#323548"/>
</g>
<defs>
<clipPath id="clip0_1151_11428">
<rect width="39.9966" height="30.98" fill="white" transform="translate(0.146729)"/>
</clipPath>
</defs>
</svg>
