<svg width="41" height="32" viewBox="0 0 41 32" fill="none" xmlns="http://www.w3.org/2000/svg">
<g clip-path="url(#clip0_1151_11402)">
<path d="M15.6833 15.845C15.2012 17.8727 13.4107 19.5331 10.9928 19.5331C8.28405 19.5331 6.21045 17.406 6.21045 14.7508C6.21045 12.1263 8.2611 9.99911 10.9315 9.99911C13.2959 9.99911 15.2165 11.5601 15.668 13.7484H12.9592C12.6761 13.1363 12.1405 12.4936 11.0234 12.4936C10.4418 12.4553 9.86796 12.6849 9.47772 13.121C9.11045 13.5418 8.89619 14.1157 8.89619 14.7661C8.89619 16.0669 9.75318 17.0387 11.0234 17.0387C12.1329 17.0387 12.6685 16.3959 12.9592 15.845H15.6833Z" fill="#323548"/>
<path d="M16.2188 14.7508C16.2188 12.5778 17.7797 10.0144 21.0317 10.0144C24.2836 10.0144 25.8447 12.5778 25.8447 14.7661C25.8447 16.9545 24.2836 19.5179 21.0317 19.5179C17.7797 19.5179 16.2188 16.9545 16.2188 14.7661V14.7508ZM18.8892 14.7814C18.8892 16.0669 19.8686 17.0234 21.0317 17.0234C22.1947 17.0234 23.1742 16.0746 23.1742 14.7661C23.1742 13.4577 22.1947 12.5089 21.0317 12.5089C19.8686 12.5089 18.8892 13.4577 18.8892 14.7661V14.7814Z" fill="#323548"/>
<path d="M26.5563 10.3052H29.0507V11.254C29.1883 11.0091 29.3721 10.7949 29.5939 10.6265C29.9918 10.3052 30.6191 9.99911 31.5528 9.99911C32.1648 9.99911 32.9378 10.1598 33.5959 10.8561C33.81 11.078 33.9861 11.3228 34.1237 11.5983C34.2997 11.3152 34.5216 11.055 34.7665 10.8255C35.3097 10.3358 36.0289 9.99911 36.9625 9.99911C37.5899 9.99911 38.5924 10.1445 39.3116 10.902C40.1455 11.7896 40.2757 12.3865 40.2757 14.3606V19.2424H37.6053V14.4983C37.6053 14.131 37.6053 13.649 37.4292 13.2434C37.2686 12.8226 36.9318 12.5165 36.2356 12.5165C35.4934 12.5165 35.1262 12.8532 34.9502 13.2587C34.7588 13.6643 34.7588 14.1157 34.7588 14.3682V19.25H32.0806V14.3835C32.0806 14.1387 32.0806 13.6719 31.92 13.274C31.7439 12.8532 31.4226 12.5165 30.7417 12.5165C29.9841 12.5165 29.6169 12.8685 29.4179 13.3046C29.219 13.7408 29.2267 14.2228 29.2267 14.4983V19.25H26.5486L26.5563 10.3052Z" fill="#323548"/>
<path d="M0.356689 14.8273C0.356689 15.9598 1.2749 16.878 2.40735 16.878C3.5398 16.878 4.458 15.9598 4.458 14.8273C4.458 13.6949 3.5398 12.7767 2.40735 12.7767C1.2749 12.7767 0.356689 13.6949 0.356689 14.8273Z" fill="#323548"/>
<mask id="mask0_1151_11402" style="mask-type:luminance" maskUnits="userSpaceOnUse" x="0" y="12" width="5" height="5">
<path d="M0.356689 14.8273C0.356689 15.9598 1.2749 16.878 2.40735 16.878C3.5398 16.878 4.458 15.9598 4.458 14.8273C4.458 13.6949 3.5398 12.7767 2.40735 12.7767C1.2749 12.7767 0.356689 13.6949 0.356689 14.8273Z" fill="white"/>
</mask>
<g mask="url(#mask0_1151_11402)">
<path d="M4.45035 12.7767H0.356689V16.8703H4.45035V12.7767Z" fill="#323548"/>
</g>
</g>
<defs>
<clipPath id="clip0_1151_11402">
<rect width="39.9964" height="31.16" fill="white" transform="translate(0.356689)"/>
</clipPath>
</defs>
</svg>
