<svg width="41" height="32" viewBox="0 0 41 32" fill="none" xmlns="http://www.w3.org/2000/svg">
<path d="M15.6537 6.37745C15.6537 6.71207 15.5208 7.03297 15.2842 7.26955C15.0476 7.50616 14.7267 7.6391 14.3921 7.6391C14.0575 7.6391 13.7366 7.50616 13.4999 7.26955C13.2634 7.03297 13.1304 6.71207 13.1304 6.37745C13.1304 6.04285 13.2634 5.72195 13.4999 5.48534C13.7366 5.24873 14.0575 5.11581 14.3921 5.11581C14.7267 5.11581 15.0476 5.24873 15.2842 5.48534C15.5208 5.72195 15.6537 6.04285 15.6537 6.37745ZM12.0791 23.5146C12.0791 23.8493 11.9462 24.1702 11.7095 24.4069C11.4729 24.6434 11.152 24.7764 10.8174 24.7764C10.4828 24.7764 10.1619 24.6434 9.92531 24.4069C9.6887 24.1702 9.55579 23.8493 9.55579 23.5146C9.55579 23.1801 9.6887 22.8592 9.92531 22.6226C10.1619 22.386 10.4828 22.2531 10.8174 22.2531C11.152 22.2531 11.4729 22.386 11.7095 22.6226C11.9462 22.8592 12.0791 23.1801 12.0791 23.5146Z" fill="#323548"/>
<path d="M15.6388 11.8446C15.6388 11.1478 15.0739 10.5829 14.3771 10.5829C13.6803 10.5829 13.1155 11.1478 13.1155 11.8446V23.62C13.1155 24.3167 13.6803 24.8815 14.3771 24.8815C15.0739 24.8815 15.6388 24.3167 15.6388 23.62V11.8446Z" fill="#323548"/>
<path d="M27.7444 6.37746V17.7322C27.7444 21.5008 25.5771 23.6197 23.1184 23.6197C20.6597 23.6197 18.177 21.5199 18.177 17.7322C18.177 13.9445 20.503 11.8446 23.1184 11.8446H27.7444V6.37746Z" stroke="#323548" stroke-width="2.79045" stroke-linejoin="round"/>
</svg>
