<svg width="40" height="32" viewBox="0 0 40 32" fill="none" xmlns="http://www.w3.org/2000/svg">
<g clip-path="url(#clip0_110_11819)">
<path d="M1.75185 19.1666C1.38211 19.1666 1.07811 19.0598 0.839836 18.8462C0.60978 18.6244 0.494751 18.3532 0.494751 18.0328C0.494751 17.7041 0.60978 17.4289 0.839836 17.207C1.07811 16.9852 1.38211 16.8743 1.75185 16.8743C2.11337 16.8743 2.40916 16.9852 2.63921 17.207C2.87749 17.4289 2.99662 17.7041 2.99662 18.0328C2.99662 18.3532 2.87749 18.6244 2.63921 18.8462C2.40916 19.0598 2.11337 19.1666 1.75185 19.1666ZM14.0421 10.4163V19.068H11.9347V13.8794L9.99971 19.068H8.29894L6.35167 13.8671V19.068H4.24418V10.4163H6.73373L9.16165 16.406L11.5649 10.4163H14.0421ZM22.977 10.4163L19.9822 16.2088V19.068H17.8747V16.2088L14.8798 10.4163H17.2708L18.9469 14.0397L20.6107 10.4163H22.977ZM24.8121 19.1666C24.4424 19.1666 24.1384 19.0598 23.9001 18.8462C23.6701 18.6244 23.555 18.3532 23.555 18.0328C23.555 17.7041 23.6701 17.4289 23.9001 17.207C24.1384 16.9852 24.4424 16.8743 24.8121 16.8743C25.1737 16.8743 25.4695 16.9852 25.6995 17.207C25.9378 17.4289 26.0569 17.7041 26.0569 18.0328C26.0569 18.3532 25.9378 18.6244 25.6995 18.8462C25.4695 19.0598 25.1737 19.1666 24.8121 19.1666ZM29.4119 10.4163V19.068H27.3044V10.4163H29.4119ZM34.1806 10.4163C35.0926 10.4163 35.8895 10.597 36.5715 10.9585C37.2536 11.3201 37.7793 11.8295 38.1491 12.4868C38.5269 13.1359 38.716 13.8876 38.716 14.7422C38.716 15.5884 38.5269 16.3402 38.1491 16.9975C37.7793 17.6548 37.2494 18.1642 36.5592 18.5258C35.8772 18.8873 35.0844 19.068 34.1806 19.068H30.9392V10.4163H34.1806ZM34.045 17.244C34.8419 17.244 35.4623 17.0263 35.906 16.5908C36.3497 16.1554 36.5715 15.5391 36.5715 14.7422C36.5715 13.9452 36.3497 13.3248 35.906 12.8812C35.4623 12.4375 34.8419 12.2156 34.045 12.2156H33.0467V17.244H34.045Z" fill="white"/>
</g>
<defs>
<clipPath id="clip0_110_11819">
<rect width="39.9964" height="31.16" fill="white" transform="translate(0.00177002)"/>
</clipPath>
</defs>
</svg>
