<svg width="40" height="32" viewBox="0 0 40 32" fill="none" xmlns="http://www.w3.org/2000/svg">
<g clip-path="url(#clip0_110_11718)">
<g clip-path="url(#clip1_110_11718)">
<path d="M1.75185 19.6666C1.38211 19.6666 1.07811 19.5598 0.839836 19.3462C0.60978 19.1244 0.494751 18.8532 0.494751 18.5328C0.494751 18.2041 0.60978 17.9289 0.839836 17.707C1.07811 17.4852 1.38211 17.3743 1.75185 17.3743C2.11337 17.3743 2.40916 17.4852 2.63921 17.707C2.87749 17.9289 2.99662 18.2041 2.99662 18.5328C2.99662 18.8532 2.87749 19.1244 2.63921 19.3462C2.40916 19.5598 2.11337 19.6666 1.75185 19.6666ZM14.0421 10.9163V19.568H11.9347V14.3794L9.99971 19.568H8.29894L6.35167 14.3671V19.568H4.24418V10.9163H6.73373L9.16165 16.906L11.5649 10.9163H14.0421ZM22.977 10.9163L19.9822 16.7088V19.568H17.8747V16.7088L14.8798 10.9163H17.2708L18.9469 14.5397L20.6107 10.9163H22.977ZM24.8121 19.6666C24.4424 19.6666 24.1384 19.5598 23.9001 19.3462C23.6701 19.1244 23.555 18.8532 23.555 18.5328C23.555 18.2041 23.6701 17.9289 23.9001 17.707C24.1384 17.4852 24.4424 17.3743 24.8121 17.3743C25.1737 17.3743 25.4695 17.4852 25.6995 17.707C25.9378 17.9289 26.0569 18.2041 26.0569 18.5328C26.0569 18.8532 25.9378 19.1244 25.6995 19.3462C25.4695 19.5598 25.1737 19.6666 24.8121 19.6666ZM29.4119 10.9163V19.568H27.3044V10.9163H29.4119ZM34.1806 10.9163C35.0926 10.9163 35.8895 11.097 36.5715 11.4585C37.2536 11.8201 37.7793 12.3295 38.1491 12.9868C38.5269 13.6359 38.716 14.3876 38.716 15.2422C38.716 16.0884 38.5269 16.8402 38.1491 17.4975C37.7793 18.1548 37.2494 18.6642 36.5592 19.0258C35.8772 19.3873 35.0844 19.568 34.1806 19.568H30.9392V10.9163H34.1806ZM34.045 17.744C34.8419 17.744 35.4623 17.5263 35.906 17.0908C36.3497 16.6554 36.5715 16.0391 36.5715 15.2422C36.5715 14.4452 36.3497 13.8248 35.906 13.3812C35.4623 12.9375 34.8419 12.7156 34.045 12.7156H33.0467V17.744H34.045Z" fill="#FF0000"/>
</g>
</g>
<defs>
<clipPath id="clip0_110_11718">
<rect width="40" height="31.16" fill="white" transform="translate(0 0.5)"/>
</clipPath>
<clipPath id="clip1_110_11718">
<rect width="39.9964" height="31.16" fill="white" transform="translate(0.00177002 0.5)"/>
</clipPath>
</defs>
</svg>
