<svg width="41" height="32" viewBox="0 0 41 32" fill="none" xmlns="http://www.w3.org/2000/svg">
<g clip-path="url(#clip0_1151_15128)">
<path d="M2.25173 19.1669C1.88199 19.1669 1.57799 19.0601 1.33971 18.8464C1.10966 18.6246 0.994629 18.3535 0.994629 18.033C0.994629 17.7044 1.10966 17.4291 1.33971 17.2073C1.57799 16.9855 1.88199 16.8745 2.25173 16.8745C2.61324 16.8745 2.90904 16.9855 3.13909 17.2073C3.37737 17.4291 3.4965 17.7044 3.4965 18.033C3.4965 18.3535 3.37737 18.6246 3.13909 18.8464C2.90904 19.0601 2.61324 19.1669 2.25173 19.1669ZM14.542 10.4165V19.0683H12.4345V13.8797L10.4996 19.0683H8.79881L6.85155 13.8674V19.0683H4.74406V10.4165H7.2336L9.66153 16.4062L12.0648 10.4165H14.542ZM23.4769 10.4165L20.482 16.209V19.0683H18.3746V16.209L15.3797 10.4165H17.7707L19.4468 14.0399L21.1106 10.4165H23.4769ZM25.312 19.1669C24.9422 19.1669 24.6383 19.0601 24.4 18.8464C24.17 18.6246 24.0549 18.3535 24.0549 18.033C24.0549 17.7044 24.17 17.4291 24.4 17.2073C24.6383 16.9855 24.9422 16.8745 25.312 16.8745C25.6736 16.8745 25.9694 16.9855 26.1993 17.2073C26.4377 17.4291 26.5568 17.7044 26.5568 18.033C26.5568 18.3535 26.4377 18.6246 26.1993 18.8464C25.9694 19.0601 25.6736 19.1669 25.312 19.1669ZM29.9118 10.4165V19.0683H27.8043V10.4165H29.9118ZM34.6804 10.4165C35.5925 10.4165 36.3894 10.5973 37.0714 10.9588C37.7534 11.3203 38.2792 11.8297 38.6489 12.487C39.0268 13.1361 39.2159 13.8879 39.2159 14.7424C39.2159 15.5887 39.0268 16.3405 38.6489 16.9978C38.2792 17.6551 37.7492 18.1645 37.0591 18.526C36.377 18.8875 35.5843 19.0683 34.6804 19.0683H31.4391V10.4165H34.6804ZM34.5449 17.2443C35.3418 17.2443 35.9622 17.0265 36.4059 16.5911C36.8496 16.1556 37.0714 15.5394 37.0714 14.7424C37.0714 13.9454 36.8496 13.3251 36.4059 12.8814C35.9622 12.4377 35.3418 12.2159 34.5449 12.2159H33.5466V17.2443H34.5449Z" fill="#323548"/>
</g>
<defs>
<clipPath id="clip0_1151_15128">
<rect width="39.9964" height="31.16" fill="white" transform="translate(0.501709)"/>
</clipPath>
</defs>
</svg>
