<svg width="41" height="32" viewBox="0 0 41 32" fill="none" xmlns="http://www.w3.org/2000/svg">
<path d="M32.5717 6.28817C31.869 6.46955 31.0268 6.70925 30.894 6.76755C30.6673 6.86798 30.4859 7.02992 30.405 7.20806C30.3433 7.34089 30.3368 7.42509 30.3271 8.18628L30.3173 9.01874L30.1489 9.06734C30.055 9.09324 29.8057 9.16126 29.5918 9.21633C29.1383 9.33618 28.9439 9.43012 28.7821 9.59532C28.604 9.77995 28.5651 9.96456 28.5779 10.5703C28.5877 11.027 28.5942 11.095 28.6653 11.2343C28.7498 11.406 28.9311 11.5582 29.119 11.6165C29.1837 11.6359 29.4785 11.6586 29.7797 11.6683L30.3205 11.6878V13.9098C30.3205 16.1837 30.3401 16.6436 30.4503 17.1554C30.7061 18.3377 31.4316 19.0665 32.6562 19.3677C33.1742 19.4941 33.521 19.5297 34.2237 19.5329C34.9041 19.5329 35.2571 19.4941 35.4903 19.3904C35.6782 19.3062 35.8821 19.1119 35.9826 18.9207C36.0668 18.762 36.07 18.7329 36.0798 18.1595C36.0928 17.4696 36.0668 17.3595 35.8433 17.136C35.6652 16.9546 35.4871 16.9028 34.985 16.8801C34.117 16.8445 33.7477 16.5821 33.657 15.9375C33.6407 15.8079 33.6244 14.8395 33.6244 13.696V11.6845L34.5897 11.6716C35.5096 11.6619 35.5582 11.6586 35.717 11.5874C35.921 11.4934 36.0279 11.3866 36.1251 11.176C36.1933 11.027 36.1996 10.959 36.2093 10.3986C36.2191 9.99049 36.2061 9.7184 36.1803 9.59206C36.1251 9.33294 35.9793 9.12564 35.7787 9.022C35.6198 8.941 35.6101 8.941 34.6288 8.92482L33.6407 8.90861L33.6244 7.8721C33.6051 6.77727 33.6019 6.74487 33.4431 6.53433C33.32 6.37563 33.1289 6.2914 32.8633 6.28168C32.7403 6.27522 32.6076 6.27845 32.5717 6.28817Z" fill="#323548"/>
<path d="M13.542 8.68527C12.7646 8.79214 11.9159 9.06424 11.1645 9.45295C10.8049 9.63756 10.7757 9.64728 10.7434 9.59221C10.5458 9.26182 10.3935 9.08691 10.2251 9.00594C10.0502 8.92171 10.0372 8.91848 9.50279 8.93143C8.96509 8.94115 8.95537 8.94115 8.78369 9.04156C8.64766 9.11607 8.58287 9.18085 8.50837 9.31689L8.40796 9.4918V14.0914V18.6909L8.47921 18.8237C8.51809 18.895 8.59906 19.0019 8.66384 19.0537C8.86469 19.2318 8.92621 19.2416 10.0599 19.2416H11.0964L11.2584 19.1574C11.456 19.0505 11.511 18.9954 11.605 18.7881L11.6795 18.6261L11.6892 15.2348L11.6957 11.8466L11.835 11.7657C12.5281 11.364 13.6586 11.1988 14.1347 11.432C14.3679 11.5454 14.5299 11.7333 14.6206 12.0021C14.6919 12.2127 14.6919 12.2191 14.708 15.4518L14.7243 18.6909L14.7955 18.8237C14.8344 18.895 14.9154 19.0019 14.9801 19.0537C15.181 19.2318 15.2457 19.2416 16.36 19.2416H17.3803L17.5747 19.1444C17.8047 19.0278 17.9277 18.8561 17.9796 18.5711C18.0055 18.4447 18.012 17.2657 18.0022 14.9271C17.9925 11.8628 17.9861 11.4353 17.9375 11.1729C17.6978 9.8643 17.0078 9.09986 15.7996 8.7954C15.5988 8.7468 15.3073 8.6885 15.1453 8.66906C14.7534 8.62048 13.9598 8.63021 13.542 8.68527Z" fill="#323548"/>
<path d="M22.8446 8.68216C21.6979 8.83764 20.8881 9.21337 20.2274 9.90331C19.5925 10.5673 19.2232 11.4225 19.0256 12.6825C18.9414 13.2266 18.9414 14.9272 19.0289 15.4843C19.3593 17.6221 20.3602 18.8595 22.1417 19.3227C22.7733 19.4879 23.1588 19.53 24.0365 19.53C25.1282 19.53 25.8763 19.436 26.8837 19.1737C27.428 19.0311 27.6222 18.9405 27.8036 18.7396C28.0208 18.4999 28.0629 18.3283 28.0466 17.729C28.0336 17.1816 28.0045 17.0747 27.7908 16.8642C27.5122 16.5856 27.172 16.5403 26.5144 16.6925C25.7761 16.8674 25.2643 16.9257 24.4902 16.9257C22.9288 16.9257 22.3198 16.5727 22.2129 15.6009C22.1935 15.426 22.187 15.2608 22.2 15.2317C22.2194 15.1798 22.417 15.1766 24.9048 15.1766C27.8457 15.1766 27.7875 15.1798 28.024 14.9855C28.0887 14.9304 28.1761 14.8171 28.2182 14.7328C28.2896 14.5871 28.2961 14.5352 28.3056 13.8647C28.3382 11.8921 27.9526 10.5932 27.0846 9.73486C26.5502 9.20042 25.8828 8.88298 24.9436 8.71456C24.5225 8.64005 23.3045 8.62061 22.8446 8.68216ZM24.1337 11.1309C24.6357 11.2119 24.9792 11.4872 25.112 11.9148C25.1736 12.1124 25.1864 12.2193 25.1864 12.6015C25.1864 12.8509 25.1736 13.0809 25.1638 13.11C25.141 13.1651 25.0408 13.1683 23.6867 13.1683C22.8867 13.1683 22.2259 13.1619 22.2194 13.1554C22.1903 13.1262 22.255 12.4849 22.3069 12.2873C22.4786 11.6136 22.8705 11.2378 23.5118 11.1277C23.7353 11.0921 23.8972 11.0921 24.1337 11.1309Z" fill="#323548"/>
<path d="M5.03614 19.0679C6.12777 19.0679 7.0127 18.1829 7.0127 17.0913C7.0127 15.9997 6.12777 15.1147 5.03614 15.1147C3.94451 15.1147 3.05957 15.9997 3.05957 17.0913C3.05957 18.1829 3.94451 19.0679 5.03614 19.0679Z" fill="#323548"/>
</svg>
