<svg width="40" height="32" viewBox="0 0 40 32" fill="none" xmlns="http://www.w3.org/2000/svg">
<g clip-path="url(#clip0_110_11815)">
<path d="M39.4062 10.2305C39.4062 7.24711 36.9827 4.65076 34.0036 4.65076H10.162C9.28821 4.65394 8.42749 4.86402 7.65017 5.26384C6.87287 5.66364 6.20095 6.24187 5.68927 6.95129C5.1776 7.66074 4.84068 8.48127 4.70597 9.34596C4.57128 10.2107 4.64265 11.095 4.91425 11.9268C3.8653 12.1434 2.90048 12.657 2.13446 13.4067C1.05897 14.4707 0.466858 15.9584 0.466858 17.5957C0.466858 19.233 1.07862 20.7444 2.18817 21.8097C2.92961 22.5194 4.23568 23.3656 6.24911 23.3656H10.0847C11.0961 23.3661 12.0884 23.0903 12.9549 22.568C13.0983 23.9132 13.7361 25.1568 14.7443 26.0572C15.7524 26.9576 17.0589 27.4501 18.4097 27.4392C20.4477 27.4478 22.4166 26.6999 23.9364 25.3401C24.7875 24.5755 25.5083 23.6767 26.0704 22.6795C26.7847 23.0188 27.5658 23.1945 28.3565 23.1938H34.1727C35.5935 23.191 36.9555 22.6245 37.96 21.6183C38.9648 20.6121 39.5303 19.2483 39.5331 17.8253L39.4062 10.2305ZM6.24911 19.0362C5.36356 19.0362 4.85791 18.5928 4.85791 17.6639C4.85791 16.7141 5.36356 16.2497 6.24911 16.2497C7.13466 16.2497 7.62066 16.7154 7.62066 17.6652C7.62066 18.5941 7.13466 19.0362 6.24911 19.0362ZM16.0281 19.0362C15.8533 19.0365 15.6807 18.9966 15.5235 18.9198C15.3664 18.8429 15.2289 18.7311 15.1216 18.5928C14.4666 17.6849 13.0558 15.6803 13.0558 15.6803C13.0558 15.6803 11.6436 17.6862 10.9899 18.5928C10.8826 18.731 10.7451 18.8428 10.588 18.9196C10.4308 18.9965 10.2583 19.0364 10.0834 19.0362C9.87104 19.0353 9.66313 18.9751 9.48298 18.8624C9.30281 18.7498 9.15755 18.5891 9.06344 18.3984C8.96933 18.2077 8.9301 17.9946 8.95014 17.7828C8.97019 17.5711 9.04872 17.3691 9.17692 17.1995L11.7275 13.9918L9.26207 10.9533C9.10792 10.7543 9.02611 10.5086 9.03021 10.2567C9.02951 10.1068 9.05848 9.95821 9.11546 9.8196C9.1724 9.68096 9.25623 9.55499 9.36208 9.44898C9.46794 9.34299 9.59369 9.25904 9.73212 9.20198C9.87055 9.14494 10.0189 9.11591 10.1686 9.11661C10.3434 9.11659 10.5159 9.15652 10.673 9.23335C10.8301 9.3102 10.9676 9.42193 11.0751 9.56006L13.0558 12.2823L15.0365 9.56006C15.1439 9.42193 15.2814 9.3102 15.4385 9.23335C15.5956 9.15652 15.7681 9.11659 15.943 9.11661C16.0927 9.11591 16.241 9.14494 16.3794 9.20198C16.5179 9.25904 16.6436 9.34299 16.7495 9.44898C16.8553 9.55499 16.9391 9.68096 16.9961 9.8196C17.0531 9.95821 17.082 10.1068 17.0813 10.2567C17.0854 10.5086 17.0037 10.7543 16.8495 10.9533L14.3841 13.9918L16.9333 17.2008C17.0611 17.3703 17.1393 17.572 17.1592 17.7835C17.1791 17.9949 17.1399 18.2077 17.046 18.3981C16.9521 18.5886 16.8072 18.7491 16.6274 18.8617C16.4477 18.9744 16.2402 19.0348 16.0281 19.0362ZM26.6915 10.6988L22.7706 19.5636C21.8431 21.6326 20.5161 23.1059 18.4084 23.1059C18.2668 23.1109 18.1258 23.0873 17.9935 23.0365C17.8613 22.9857 17.7407 22.9087 17.6388 22.8102C17.5369 22.7117 17.4559 22.5937 17.4005 22.4632C17.3452 22.3326 17.3167 22.1923 17.3167 22.0504C17.3167 21.9086 17.3452 21.7682 17.4005 21.6377C17.4559 21.5071 17.5369 21.3891 17.6388 21.2906C17.7407 21.1921 17.8613 21.1151 17.9935 21.0644C18.1258 21.0136 18.2668 20.99 18.4084 20.995C19.7563 20.995 20.389 19.9179 21.0847 18.1874L17.8385 10.6988C17.7824 10.5578 17.7539 10.4072 17.7547 10.2554C17.754 10.1055 17.783 9.95691 17.8399 9.81827C17.8969 9.67963 17.9807 9.55369 18.0866 9.44768C18.1924 9.34166 18.3182 9.25772 18.4566 9.20067C18.595 9.14363 18.7434 9.11461 18.8931 9.11531C19.1201 9.11319 19.3423 9.18086 19.5297 9.30918C19.7171 9.43751 19.8607 9.62031 19.941 9.83294L22.2597 15.7013L24.5784 9.83294C24.6589 9.62043 24.8026 9.43772 24.99 9.30941C25.1772 9.18112 25.3995 9.11338 25.6265 9.11531C25.776 9.11461 25.9243 9.14363 26.0627 9.20067C26.2013 9.25772 26.3271 9.34166 26.4329 9.44768C26.5387 9.55369 26.6224 9.67963 26.6794 9.81827C26.7364 9.95691 26.7654 10.1055 26.7647 10.2554C26.7689 10.4065 26.744 10.5571 26.6915 10.6988ZM34.1727 18.867H28.3565C28.1002 18.8643 27.8551 18.7611 27.674 18.5796C27.4928 18.3981 27.3898 18.1528 27.387 17.8962C27.3849 17.6638 27.4672 17.4385 27.6188 17.2625L30.13 13.8934L31.7243 11.7602L32.1487 11.1908H28.5883C28.4637 11.1908 28.3404 11.1662 28.2253 11.1185C28.1102 11.0708 28.0056 11.0008 27.9177 10.9126C27.8295 10.8244 27.7598 10.7197 27.7121 10.6045C27.6644 10.4892 27.6398 10.3657 27.6398 10.241C27.6398 10.1162 27.6644 9.9927 27.7121 9.87745C27.7598 9.76223 27.8295 9.65752 27.9177 9.56932C28.0056 9.48111 28.1102 9.41114 28.2253 9.3634C28.3404 9.31566 28.4637 9.29111 28.5883 9.29111H34.0036C34.1966 9.29104 34.3857 9.34594 34.5487 9.44937C34.7117 9.55281 34.8422 9.70054 34.9245 9.87531C35.0068 10.0501 35.0379 10.2447 35.014 10.4365C34.9903 10.6283 34.9124 10.8094 34.7896 10.9586L30.337 16.9253H34.1727C34.4299 16.9253 34.6766 17.0277 34.8587 17.2099C35.0405 17.3921 35.1428 17.6392 35.1428 17.8968C35.1428 18.1545 35.0405 18.4016 34.8587 18.5838C34.6766 18.766 34.4299 18.8683 34.1727 18.8683V18.867Z" fill="white"/>
</g>
<defs>
<clipPath id="clip0_110_11815">
<rect width="39.9964" height="31.16" fill="white" transform="translate(0.00177002)"/>
</clipPath>
</defs>
</svg>
