<svg width="41" height="32" viewBox="0 0 41 32" fill="none" xmlns="http://www.w3.org/2000/svg">
<g clip-path="url(#clip0_1151_15135)">
<path d="M39.9061 10.2306C39.9061 7.24723 37.4826 4.65088 34.5036 4.65088H10.662C9.78815 4.65406 8.92743 4.86414 8.15011 5.26396C7.3728 5.66376 6.70089 6.24199 6.18921 6.95142C5.67754 7.66086 5.34061 8.4814 5.20591 9.34609C5.07122 10.2108 5.14259 11.0951 5.41419 11.9269C4.36524 12.1435 3.40042 12.6572 2.6344 13.4068C1.55891 14.4708 0.966797 15.9585 0.966797 17.5958C0.966797 19.2332 1.57856 20.7445 2.68811 21.8098C3.42955 22.5196 4.73562 23.3657 6.74905 23.3657H10.5847C11.596 23.3662 12.5884 23.0904 13.4548 22.5681C13.5982 23.9133 14.236 25.1569 15.2442 26.0573C16.2524 26.9577 17.5589 27.4502 18.9096 27.4393C20.9476 27.4479 22.9166 26.7001 24.4363 25.3402C25.2874 24.5756 26.0083 23.6768 26.5703 22.6796C27.2847 23.0189 28.0658 23.1946 28.8564 23.1939H34.6726C36.0934 23.1911 37.4554 22.6246 38.4599 21.6185C39.4647 20.6123 40.0303 19.2484 40.0331 17.8254L39.9061 10.2306ZM6.74905 19.0364C5.8635 19.0364 5.35785 18.5929 5.35785 17.6641C5.35785 16.7142 5.8635 16.2498 6.74905 16.2498C7.63459 16.2498 8.1206 16.7155 8.1206 17.6654C8.1206 18.5942 7.63459 19.0364 6.74905 19.0364ZM16.5281 19.0364C16.3532 19.0366 16.1806 18.9968 16.0235 18.9199C15.8664 18.843 15.7289 18.7312 15.6216 18.5929C14.9666 17.6851 13.5557 15.6804 13.5557 15.6804C13.5557 15.6804 12.1436 17.6864 11.4899 18.5929C11.3825 18.7311 11.245 18.8429 11.0879 18.9198C10.9308 18.9966 10.7582 19.0365 10.5834 19.0364C10.371 19.0354 10.1631 18.9752 9.98292 18.8626C9.80275 18.7499 9.65748 18.5892 9.56338 18.3986C9.46927 18.2079 9.43004 17.9947 9.45008 17.7829C9.47013 17.5712 9.54866 17.3692 9.67685 17.1996L12.2274 13.9919L9.76201 10.9535C9.60786 10.7544 9.52605 10.5087 9.53015 10.2568C9.52945 10.1069 9.55842 9.95833 9.61539 9.81972C9.67234 9.68108 9.75617 9.55511 9.86202 9.4491C9.96787 9.34311 10.0936 9.25916 10.2321 9.2021C10.3705 9.14506 10.5188 9.11604 10.6685 9.11673C10.8434 9.11671 11.0159 9.15664 11.173 9.23347C11.3301 9.31032 11.4676 9.42206 11.575 9.56018L13.5557 12.2825L15.5364 9.56018C15.6439 9.42206 15.7814 9.31032 15.9385 9.23347C16.0956 9.15664 16.2681 9.11671 16.4429 9.11673C16.5926 9.11604 16.7409 9.14506 16.8794 9.2021C17.0178 9.25916 17.1436 9.34311 17.2494 9.4491C17.3553 9.55511 17.4391 9.68108 17.4961 9.81972C17.553 9.95833 17.582 10.1069 17.5813 10.2568C17.5854 10.5087 17.5036 10.7544 17.3494 10.9535L14.884 13.9919L17.4333 17.2009C17.561 17.3704 17.6392 17.5722 17.6591 17.7836C17.679 17.995 17.6398 18.2079 17.5459 18.3983C17.452 18.5887 17.3071 18.7492 17.1273 18.8619C16.9476 18.9745 16.7401 19.035 16.5281 19.0364ZM27.1914 10.6989L23.2705 19.5638C22.3431 21.6327 21.0161 23.106 18.9083 23.106C18.7668 23.111 18.6257 23.0874 18.4935 23.0366C18.3613 22.9858 18.2406 22.9089 18.1387 22.8104C18.0368 22.7119 17.9558 22.5938 17.9005 22.4633C17.8451 22.3327 17.8166 22.1924 17.8166 22.0506C17.8166 21.9087 17.8451 21.7683 17.9005 21.6378C17.9558 21.5073 18.0368 21.3892 18.1387 21.2907C18.2406 21.1922 18.3613 21.1153 18.4935 21.0645C18.6257 21.0137 18.7668 20.9901 18.9083 20.9951C20.2563 20.9951 20.889 19.918 21.5846 18.1875L18.3385 10.6989C18.2823 10.5579 18.2538 10.4073 18.2546 10.2555C18.2539 10.1056 18.2829 9.95703 18.3399 9.81839C18.3968 9.67975 18.4806 9.55381 18.5865 9.4478C18.6923 9.34178 18.8181 9.25784 18.9565 9.2008C19.095 9.14375 19.2433 9.11473 19.393 9.11543C19.62 9.11332 19.8422 9.18098 20.0296 9.3093C20.217 9.43764 20.3606 9.62043 20.441 9.83307L22.7597 15.7014L25.0784 9.83307C25.1588 9.62055 25.3025 9.43785 25.49 9.30953C25.6771 9.18124 25.8994 9.1135 26.1264 9.11543C26.2759 9.11473 26.4243 9.14375 26.5626 9.2008C26.7012 9.25784 26.827 9.34178 26.9328 9.4478C27.0386 9.55381 27.1224 9.67975 27.1793 9.81839C27.2363 9.95703 27.2654 10.1056 27.2647 10.2555C27.2689 10.4067 27.244 10.5572 27.1914 10.6989ZM34.6726 18.8671H28.8564C28.6001 18.8644 28.355 18.7612 28.1739 18.5797C27.9927 18.3983 27.8897 18.1529 27.8869 17.8963C27.8849 17.6639 27.9672 17.4387 28.1188 17.2626L30.63 13.8935L32.2242 11.7603L32.6486 11.1909H29.0882C28.9636 11.1909 28.8403 11.1664 28.7252 11.1186C28.6101 11.0709 28.5055 11.0009 28.4176 10.9127C28.3295 10.8245 28.2597 10.7198 28.212 10.6046C28.1644 10.4893 28.1397 10.3658 28.1397 10.2411C28.1397 10.1163 28.1644 9.99282 28.212 9.87757C28.2597 9.76235 28.3295 9.65764 28.4176 9.56944C28.5055 9.48124 28.6101 9.41127 28.7252 9.36353C28.8403 9.31579 28.9636 9.29123 29.0882 9.29123H34.5036C34.6966 9.29116 34.8856 9.34606 35.0486 9.44949C35.2116 9.55293 35.3421 9.70066 35.4244 9.87543C35.5067 10.0502 35.5379 10.2449 35.5139 10.4367C35.4902 10.6285 35.4123 10.8095 35.2895 10.9587L30.8369 16.9254H34.6726C34.9298 16.9254 35.1765 17.0278 35.3586 17.21C35.5404 17.3922 35.6428 17.6393 35.6428 17.8969C35.6428 18.1546 35.5404 18.4017 35.3586 18.5839C35.1765 18.7661 34.9298 18.8684 34.6726 18.8684V18.8671Z" fill="#323548"/>
</g>
<defs>
<clipPath id="clip0_1151_15135">
<rect width="39.9964" height="31.16" fill="white" transform="translate(0.501709)"/>
</clipPath>
</defs>
</svg>
