<svg width="80" height="80" viewBox="0 0 80 80" fill="none" xmlns="http://www.w3.org/2000/svg">
<path d="M42.03 7.5L8.63375 16.7138H8.58875C8.03375 16.7138 2.5 16.8687 2.5 23.0562C2.5 25.745 3.6925 27.7487 3.6925 27.7487L29.135 70.3013C31.5675 74.1763 36.7337 71.75 36.7337 71.75L75.7475 52.7438L74.2875 51.2625C73.9437 49.4837 73.7437 46.19 76.1587 43.7375C76.2125 43.6825 76.2225 43.6075 76.2513 43.5387L77.5 43.0375L42.03 7.5ZM43.0662 15.615L49.895 23.0487L24.4062 32.3825L18.3862 22.9125L43.0662 15.615ZM28.2325 63.9225L5.8525 26.4875C5.8425 26.4738 5 24.9762 5 23.0562C5 20.6213 6.1925 19.695 7.35875 19.3713L32.95 59.2912C31.0238 60.125 28.8713 62.03 28.2325 63.9225ZM73.015 47.6762C72.9337 48.2512 72.8925 48.8113 72.9012 49.3363L47.29 61.4925L72.9925 50.585C73.0175 50.785 73.04 50.9837 73.0713 51.1637L40.24 67.0213L73.33 52.345L73.35 52.4237L36.7337 69.94C36.7162 69.9512 35.045 70.84 33.37 70.84C31.715 70.84 30.6838 69.99 30.2137 68.2425C29.005 63.7525 35.8725 61.2075 35.9762 61.17L73.955 44.7388C73.6825 45.2388 73.4938 45.7488 73.3363 46.255L49.2275 57.6038L73.015 47.6762Z" fill="#377BF6"/>
</svg>
