<svg width="80" height="80" viewBox="0 0 80 80" fill="none" xmlns="http://www.w3.org/2000/svg">
<g clip-path="url(#clip0_58_581)">
<path d="M63.4 52.1999C64.5666 49.3666 65.2 46.3332 65.2 42.9999C65.2 40.5999 64.8333 38.2999 64.2 36.1666C62.0333 36.6666 59.7666 36.9332 57.4 36.9332C52.5532 36.9384 47.7762 35.7783 43.4717 33.5506C39.1672 31.323 35.4614 28.0931 32.6666 24.1332C29.6769 31.3672 24.037 37.1859 16.9 40.3999C16.7666 41.2332 16.7666 42.1332 16.7666 42.9999C16.7666 46.1823 17.3934 49.3335 18.6113 52.2736C19.8291 55.2137 21.6141 57.8852 23.8644 60.1355C28.409 64.6801 34.5729 67.2332 41 67.2332C44.5 67.2332 47.8666 66.4666 50.9 65.0999C52.8 68.7332 53.6666 70.5332 53.6 70.5332C48.1333 72.3666 43.9 73.2666 41 73.2666C32.9333 73.2666 25.2333 70.0999 19.5666 64.3999C16.12 60.9638 13.5579 56.7433 12.1 52.0999H7.66663V36.9332H11.3C12.4008 31.5749 14.9316 26.6146 18.6239 22.5785C22.3162 18.5425 27.0323 15.5813 32.2717 14.0091C37.5111 12.4369 43.0784 12.3125 48.3828 13.6489C53.6873 14.9854 58.531 17.7329 62.4 21.5999C66.6007 25.7841 69.466 31.1202 70.6333 36.9332H74.3333V52.0999H74.1333L62.2666 62.9999L44.6 60.9999V55.4332H60.7L63.4 52.1999ZM31.9 42.2332C32.9 42.2332 33.8666 42.6332 34.5666 43.3666C35.2701 44.0758 35.6648 45.0343 35.6648 46.0332C35.6648 47.0322 35.2701 47.9907 34.5666 48.6999C33.8666 49.3999 32.9 49.7999 31.9 49.7999C29.8 49.7999 28.1 48.1332 28.1 46.0332C28.1 43.9332 29.8 42.2332 31.9 42.2332ZM50.0666 42.2332C52.1666 42.2332 53.8333 43.9332 53.8333 46.0332C53.8333 48.1332 52.1666 49.7999 50.0666 49.7999C47.9666 49.7999 46.2666 48.1332 46.2666 46.0332C46.2666 45.0254 46.667 44.0589 47.3796 43.3462C48.0923 42.6336 49.0588 42.2332 50.0666 42.2332Z" fill="#377BF6"/>
</g>
<defs>
<clipPath id="clip0_58_581">
<rect width="80" height="80" fill="white"/>
</clipPath>
</defs>
</svg>
