<svg width="80" height="80" viewBox="0 0 80 80" fill="none" xmlns="http://www.w3.org/2000/svg">
<path d="M33.3334 39.9999C40.7001 39.9999 46.6667 34.0333 46.6667 26.6666C46.6667 19.2999 40.7001 13.3333 33.3334 13.3333C25.9667 13.3333 20.0001 19.2999 20.0001 26.6666C20.0001 34.0333 25.9667 39.9999 33.3334 39.9999ZM33.3334 19.9999C35.1015 19.9999 36.7972 20.7023 38.0475 21.9525C39.2977 23.2028 40.0001 24.8985 40.0001 26.6666C40.0001 28.4347 39.2977 30.1304 38.0475 31.3806C36.7972 32.6309 35.1015 33.3333 33.3334 33.3333C29.6334 33.3333 26.6667 30.3666 26.6667 26.6666C26.6667 22.9666 29.6667 19.9999 33.3334 19.9999ZM40.0001 66.6666H6.66675V56.6666C6.66675 47.7666 24.4334 43.3333 33.3334 43.3333C36.3667 43.3333 40.4334 43.8666 44.5001 44.8999C44.2001 45.9999 44.0001 47.1666 44.0001 48.3333V51.2999C40.7334 50.3333 37.0001 49.6666 33.3334 49.6666C23.4334 49.6666 13.0001 54.5333 13.0001 56.6666V60.3333H40.0001V66.6666ZM69.3334 56.6666H55.0001V48.3333C55.0001 45.6666 57.3334 43.9999 60.0001 43.9999C62.6667 43.9999 65.0001 45.6666 65.0001 48.3333V49.9999H69.3334V48.3333C69.3334 43.6666 64.6667 39.9999 60.0001 39.9999C55.3334 39.9999 50.6667 43.6666 50.6667 48.3333V56.6666C48.6667 56.6666 46.6667 58.6666 46.6667 60.6666V72.3333C46.6667 74.6666 48.6667 76.6666 50.6667 76.6666H69.0001C71.3334 76.6666 73.3334 74.6666 73.3334 72.6666V60.9999C73.3334 58.6666 71.3334 56.6666 69.3334 56.6666Z" fill="#377BF6"/>
</svg>
