<svg width="80" height="80" viewBox="0 0 80 80" fill="none" xmlns="http://www.w3.org/2000/svg">
<path d="M70 10.3333L67.3333 12.9999C63.3333 9.33325 58.3333 7.33325 53.3333 7.33325C48.3333 7.33325 43.3333 9.33325 39.3333 12.9999L36.6666 10.3333C41.3333 5.66658 47.3333 3.33325 53.3333 3.33325C59.3333 3.33325 65.3333 5.66658 70 10.3333ZM53.3333 10.9999C57.3333 10.9999 61.3333 12.6666 64.3333 15.6666L61.6666 18.3333C59.3333 15.9999 56.3333 14.9999 53.3333 14.9999C50.3333 14.9999 47.3333 15.9999 45 18.3333L42.3333 15.6666C45.3333 12.6666 49.3333 10.9999 53.3333 10.9999ZM56.6666 33.3333H63.3333C65.1 33.3333 66.8 34.0333 68.0333 35.2999C69.3 36.5333 70 38.2332 70 39.9999V46.6666C70 48.4333 69.3 50.1333 68.0333 51.3666C66.8 52.6333 65.1 53.3333 63.3333 53.3333H43.3333V59.9999H46.6666C48.5 59.9999 50 61.4999 50 63.3333H73.3333V69.9999H50C50 71.8333 48.5 73.3333 46.6666 73.3333H33.3333C31.5 73.3333 30 71.8333 30 69.9999H6.66663V63.3333H30C30 61.4999 31.5 59.9999 33.3333 59.9999H36.6666V53.3333H16.6666C14.9 53.3333 13.2 52.6333 11.9666 51.3666C10.7 50.1333 9.99996 48.4333 9.99996 46.6666V39.9999C9.99996 38.2332 10.7 36.5333 11.9666 35.2999C13.2 34.0333 14.9 33.3333 16.6666 33.3333H50V19.9999H56.6666V33.3333ZM16.6666 46.6666H23.3333V39.9999H16.6666V46.6666ZM28.3333 46.6666H35V39.9999H28.3333V46.6666ZM40 46.6666H46.6666V39.9999H40V46.6666Z" fill="#377BF6"/>
</svg>
