<svg width="80" height="61" viewBox="0 0 80 61" fill="none" xmlns="http://www.w3.org/2000/svg">
<g clip-path="url(#clip0_55_491)">
<path d="M31.4642 57.1429H21.0713C15.7142 57.1429 10.9999 55.3571 7.17847 51.5357C3.35704 47.7857 1.42847 43.1786 1.42847 37.7857C1.42847 33.1429 2.82132 29 5.60704 25.3571C8.32353 21.7957 12.2259 19.325 16.607 18.3929C18.107 12.9286 21.0713 8.5 25.5356 5.10714C29.9999 1.78571 35.0713 0 40.7142 0C47.6785 0 53.607 2.42857 58.4285 7.28571C63.2856 12.1071 65.7142 18.0357 65.7142 25C69.8213 25.4643 73.2499 27.25 75.9285 30.3571C78.2142 32.9643 79.4999 35.9286 79.857 39.2857H72.7142C72.357 37.5 71.5713 36.0357 70.2499 34.75C68.5356 33 66.4285 32.1429 63.9285 32.1429H58.5713V25C58.5713 20.0714 56.7856 15.8571 53.357 12.3571C49.8928 8.92857 45.6785 7.14286 40.7142 7.14286C35.7856 7.14286 31.5713 8.92857 28.0713 12.3571C24.6428 15.8571 22.857 20.0714 22.857 25H21.0713C17.607 25 14.6785 26.2143 12.2499 28.6786C9.78561 31.1071 8.57132 34.0357 8.57132 37.5C8.57132 40.9643 9.78561 43.9286 12.2499 46.4286C14.6785 48.8214 17.607 50 21.0713 50H29.9999C29.9999 52.5714 30.5356 54.9643 31.4642 57.1429ZM79.9999 46.4286V53.5714H72.857V60.7143H65.7142V53.5714H57.857C56.4285 57.8571 52.4999 60.7143 47.857 60.7143C41.7856 60.7143 37.1428 56.0714 37.1428 50C37.1428 43.9286 41.7856 39.2857 47.857 39.2857C52.4999 39.2857 56.4285 42.1429 57.857 46.4286H79.9999ZM51.4285 50C51.4285 48.2143 49.9999 46.4286 47.857 46.4286C45.7142 46.4286 44.2856 48.2143 44.2856 50C44.2856 51.7857 45.7142 53.5714 47.857 53.5714C49.9999 53.5714 51.4285 51.7857 51.4285 50Z" fill="#377BF6"/>
</g>
<defs>
<clipPath id="clip0_55_491">
<rect width="80" height="60.7143" fill="white"/>
</clipPath>
</defs>
</svg>
