<svg width="80" height="80" viewBox="0 0 80 80" fill="none" xmlns="http://www.w3.org/2000/svg">
<g clip-path="url(#clip0_58_571)">
<path d="M63.3333 10C65.1014 10 66.7971 10.7024 68.0474 11.9526C69.2976 13.2029 70 14.8986 70 16.6667V63.3333C70 65.1014 69.2976 66.7971 68.0474 68.0474C66.7971 69.2976 65.1014 70 63.3333 70H16.6667C14.8986 70 13.2029 69.2976 11.9526 68.0474C10.7024 66.7971 10 65.1014 10 63.3333V16.6667C10 14.8986 10.7024 13.2029 11.9526 11.9526C13.2029 10.7024 14.8986 10 16.6667 10H63.3333ZM63.3333 16.6667H16.6667V63.3333H63.3333V16.6667ZM40.1233 25.7633C41.0267 22.87 44.9233 22.5967 46.29 25.15L46.4633 25.5167L52.2567 40H56.6667C57.5163 40.0009 58.3334 40.3263 58.9512 40.9095C59.569 41.4927 59.9408 42.2898 59.9906 43.138C60.0404 43.9861 59.7644 44.8213 59.2191 45.4728C58.6738 46.1243 57.9003 46.543 57.0567 46.6433L56.6667 46.6667H50.0233C49.4197 46.667 48.827 46.5051 48.3075 46.1978C47.7879 45.8905 47.3605 45.4492 47.07 44.92L46.8967 44.5533L43.72 36.6067L38.2067 54.25C37.3433 57.01 33.69 57.4267 32.1833 55.1L31.9833 54.75L27.9367 46.6667H23.3333C22.4837 46.6657 21.6666 46.3404 21.0488 45.7572C20.431 45.1739 20.0592 44.3768 20.0094 43.5287C19.9596 42.6805 20.2356 41.8454 20.7809 41.1939C21.3262 40.5424 22.0997 40.1237 22.9433 40.0233L23.3333 40H29.98C31.1133 40 32.16 40.5667 32.78 41.4967L32.99 41.8633L34.2833 44.45L40.1233 25.7633Z" fill="#377BF6"/>
</g>
<defs>
<clipPath id="clip0_58_571">
<rect width="80" height="80" fill="white"/>
</clipPath>
</defs>
</svg>
