<svg class="animated" style="height: 100%; width: 100%;" id="freepik_stories-secure-server" xmlns="http://www.w3.org/2000/svg" viewBox="0 0 500 500" version="1.1" xmlns:xlink="http://www.w3.org/1999/xlink" xmlns:svgjs="http://svgjs.com/svgjs"><style>svg#freepik_stories-secure-server:not(.animated) .animable {opacity: 0;}svg#freepik_stories-secure-server.animated #freepik--background-simple--inject-52 {animation: 1s 1 forwards cubic-bezier(.36,-0.01,.5,1.38) slideDown;animation-delay: 0s;}svg#freepik_stories-secure-server.animated #freepik--Padlocks--inject-52 {animation: 1s 1 forwards cubic-bezier(.36,-0.01,.5,1.38) slideRight;animation-delay: 0s;}svg#freepik_stories-secure-server.animated #freepik--Device--inject-52 {animation: 1s 1 forwards cubic-bezier(.36,-0.01,.5,1.38) slideUp;animation-delay: 0s;}            @keyframes slideDown {                0% {                    opacity: 0;                    transform: translateY(-30px);                }                100% {                    opacity: 1;                    transform: translateY(0);                }            }                    @keyframes slideRight {                0% {                    opacity: 0;                    transform: translateX(30px);                }                100% {                    opacity: 1;                    transform: translateX(0);                }            }                    @keyframes slideUp {                0% {                    opacity: 0;                    transform: translateY(30px);                }                100% {                    opacity: 1;                    transform: inherit;                }            }        </style><g id="freepik--background-simple--inject-52" class="animable" style="transform-origin: 250.085px 224.063px;"><path d="M158.08,148.41h31.61v-2.56c-10.1,1-20,.82-31.87,1.83A2.54,2.54,0,0,1,158.08,148.41Z" style="fill: rgb(239, 102, 3); transform-origin: 173.755px 147.13px;" id="elja6dqumtus" class="animable"></path><path d="M421,213c-4.84-27.18-18.16-48.54-35.28-68.28q-2.94-3.39-5.81-6.44H329a2.65,2.65,0,1,1-2.74-3.57V123H296.74V138.3H261.9V166h-1V137.3h34.84V122h55.15a2.66,2.66,0,1,1,0,1H327.28v11.79a2.66,2.66,0,0,1,1.91,2.48h49.73c-37.63-39.52-68.16-39.19-92.21-33.18-23.49,5.88-34.62,19.21-60.19,31.25v5h21.63v1H225.52v-5.51c-1.85.85-3.76,1.69-5.76,2.53a99.75,99.75,0,0,1-29.07,7.38v3.66H158.08a2.66,2.66,0,0,1-5.27-.5,2.38,2.38,0,0,1,.13-.76,182.67,182.67,0,0,0-18.32,3c-37.11,8-58.21,58.14-58.21,86.81s2.23,70.11,34.2,91.59S218.31,310.39,248.14,312s64,35,107,35C415.26,347,430.92,268.89,421,213Zm-39.72,31.15h16V217.51a2.66,2.66,0,1,1,1,0v27.66h-16V263h-1Zm-57.75-55.42H357a2.66,2.66,0,1,1,0,1h-33.5Zm-179.15-2.16A2.65,2.65,0,0,1,147,189h49.47v1H146.89a2.66,2.66,0,1,1-2.55-3.37Zm50.17,113.35H177.66v7a2.66,2.66,0,1,1-3.11,3.11H142.31V293.26H128.56a2.66,2.66,0,0,1-2,1.87v25.61h-16a2.66,2.66,0,1,1,.17-1h14.81V295.13a2.66,2.66,0,0,1-2-1.87H102.9a2.67,2.67,0,1,1,.09-1h20.39a2.65,2.65,0,0,1,5.27,0h14.66v16.79h31.24a2.66,2.66,0,0,1,2.11-2.11v-8h17.85Zm-64.06-35.69a2.66,2.66,0,0,1-5.22,0h-8.82a2.66,2.66,0,1,1,0-1h8.82a2.66,2.66,0,0,1,2.58-2.16v-7.53h-23a2.67,2.67,0,1,1-.13-1h24.14v8.72a2.7,2.7,0,0,1,1.64,2H401.27a2.66,2.66,0,1,1,0,1ZM402,311.34a2.65,2.65,0,1,1,.05,1H363.68V302.18a2.62,2.62,0,0,1-1.9-2.05H319.15v-1h42.63a2.66,2.66,0,0,1,5.22,0h35a2.66,2.66,0,1,1,0,1H367a2.66,2.66,0,0,1-2.32,2.13v9.08Z" style="fill: rgb(239, 102, 3); transform-origin: 250.085px 224.063px;" id="els7j32x4em5c" class="animable"></path><g id="elpu90ysd8pip"><g style="opacity: 0.7; transform-origin: 250.085px 224.063px;" class="animable"><path d="M158.08,148.41h31.61v-2.56c-10.1,1-20,.82-31.87,1.83A2.54,2.54,0,0,1,158.08,148.41Z" style="fill: rgb(255, 255, 255); transform-origin: 173.755px 147.13px;" id="elmbbjf4jte5" class="animable"></path><path d="M421,213c-4.84-27.18-18.16-48.54-35.28-68.28q-2.94-3.39-5.81-6.44H329a2.65,2.65,0,1,1-2.74-3.57V123H296.74V138.3H261.9V166h-1V137.3h34.84V122h55.15a2.66,2.66,0,1,1,0,1H327.28v11.79a2.66,2.66,0,0,1,1.91,2.48h49.73c-37.63-39.52-68.16-39.19-92.21-33.18-23.49,5.88-34.62,19.21-60.19,31.25v5h21.63v1H225.52v-5.51c-1.85.85-3.76,1.69-5.76,2.53a99.75,99.75,0,0,1-29.07,7.38v3.66H158.08a2.66,2.66,0,0,1-5.27-.5,2.38,2.38,0,0,1,.13-.76,182.67,182.67,0,0,0-18.32,3c-37.11,8-58.21,58.14-58.21,86.81s2.23,70.11,34.2,91.59S218.31,310.39,248.14,312s64,35,107,35C415.26,347,430.92,268.89,421,213Zm-39.72,31.15h16V217.51a2.66,2.66,0,1,1,1,0v27.66h-16V263h-1Zm-57.75-55.42H357a2.66,2.66,0,1,1,0,1h-33.5Zm-179.15-2.16A2.65,2.65,0,0,1,147,189h49.47v1H146.89a2.66,2.66,0,1,1-2.55-3.37Zm50.17,113.35H177.66v7a2.66,2.66,0,1,1-3.11,3.11H142.31V293.26H128.56a2.66,2.66,0,0,1-2,1.87v25.61h-16a2.66,2.66,0,1,1,.17-1h14.81V295.13a2.66,2.66,0,0,1-2-1.87H102.9a2.67,2.67,0,1,1,.09-1h20.39a2.65,2.65,0,0,1,5.27,0h14.66v16.79h31.24a2.66,2.66,0,0,1,2.11-2.11v-8h17.85Zm-64.06-35.69a2.66,2.66,0,0,1-5.22,0h-8.82a2.66,2.66,0,1,1,0-1h8.82a2.66,2.66,0,0,1,2.58-2.16v-7.53h-23a2.67,2.67,0,1,1-.13-1h24.14v8.72a2.7,2.7,0,0,1,1.64,2H401.27a2.66,2.66,0,1,1,0,1ZM402,311.34a2.65,2.65,0,1,1,.05,1H363.68V302.18a2.62,2.62,0,0,1-1.9-2.05H319.15v-1h42.63a2.66,2.66,0,0,1,5.22,0h35a2.66,2.66,0,1,1,0,1H367a2.66,2.66,0,0,1-2.32,2.13v9.08Z" style="fill: rgb(255, 255, 255); transform-origin: 250.085px 224.063px;" id="elsyrwf1gkl9m" class="animable"></path></g></g></g><g id="freepik--Padlocks--inject-52" class="animable" style="transform-origin: 259.985px 174.55px;"><path d="M272.78,122.77H247.43a2.11,2.11,0,0,1-2.11-2.1V108.73a14.78,14.78,0,1,1,29.56,0v11.94A2.1,2.1,0,0,1,272.78,122.77Zm-23.24-4.21h21.13v-9.83a10.57,10.57,0,1,0-21.13,0Z" style="fill: rgb(239, 102, 3); stroke: rgb(38, 50, 56); stroke-linecap: round; stroke-linejoin: round; transform-origin: 260.1px 108.36px;" id="el56oarewgbqu" class="animable"></path><rect x="243.76" y="117.02" width="32.27" height="27.27" style="fill: rgb(38, 50, 56); stroke: rgb(38, 50, 56); stroke-linecap: round; stroke-linejoin: round; transform-origin: 259.895px 130.655px;" id="elvb6logfa4lk" class="animable"></rect><path d="M263.25,128.34a3.52,3.52,0,1,0-5.18,3.09l-.59,6.2H262l-.59-6.2A3.5,3.5,0,0,0,263.25,128.34Z" style="fill: rgb(239, 102, 3); stroke: rgb(38, 50, 56); stroke-miterlimit: 10; transform-origin: 259.73px 131.218px;" id="elv1m8a7evjbi" class="animable"></path><path d="M390.77,257.38H365.42a2.1,2.1,0,0,1-2.1-2.11V243.34a14.78,14.78,0,1,1,29.55,0v11.93A2.1,2.1,0,0,1,390.77,257.38Zm-23.24-4.21h21.13v-9.83a10.57,10.57,0,1,0-21.13,0Z" style="fill: rgb(239, 102, 3); stroke: rgb(38, 50, 56); stroke-linecap: round; stroke-linejoin: round; transform-origin: 378.095px 242.778px;" id="elfq2xqr8wtb" class="animable"></path><rect x="361.75" y="251.63" width="32.27" height="27.27" style="fill: rgb(38, 50, 56); stroke: rgb(38, 50, 56); stroke-linecap: round; stroke-linejoin: round; transform-origin: 377.885px 265.265px;" id="elci3cwcg3d7h" class="animable"></rect><path d="M381.24,263a3.52,3.52,0,1,0-5.18,3.09l-.59,6.19H380L379.4,266A3.51,3.51,0,0,0,381.24,263Z" style="fill: rgb(239, 102, 3); stroke: rgb(38, 50, 56); stroke-miterlimit: 10; transform-origin: 377.72px 265.873px;" id="elgrquk9cbxqv" class="animable"></path><path d="M153.37,257.38H128a2.1,2.1,0,0,1-2.11-2.11V243.34a14.78,14.78,0,0,1,29.56,0v11.93A2.1,2.1,0,0,1,153.37,257.38Zm-23.24-4.21h21.14v-9.83a10.57,10.57,0,0,0-21.14,0Z" style="fill: rgb(239, 102, 3); stroke: rgb(38, 50, 56); stroke-linecap: round; stroke-linejoin: round; transform-origin: 140.67px 242.97px;" id="elhwn8rd42l8a" class="animable"></path><rect x="124.36" y="251.63" width="32.27" height="27.27" style="fill: rgb(38, 50, 56); stroke: rgb(38, 50, 56); stroke-linecap: round; stroke-linejoin: round; transform-origin: 140.495px 265.265px;" id="ellw2z2tbd2e" class="animable"></rect><path d="M143.85,263a3.52,3.52,0,1,0-5.19,3.09l-.59,6.19h4.52L142,266A3.5,3.5,0,0,0,143.85,263Z" style="fill: rgb(239, 102, 3); stroke: rgb(38, 50, 56); stroke-miterlimit: 10; transform-origin: 140.33px 265.876px;" id="elq2ly9kbqvce" class="animable"></path><path d="M410.26,238c-4,4.18-6.38,10.58-6.34,17.09s2.55,13,6.7,17.14a1.69,1.69,0,0,0,2.39,0,1.65,1.65,0,0,0,.49-1.2,1.72,1.72,0,0,0-.49-1.19c-3.54-3.51-5.67-9-5.71-14.76s2-11.17,5.4-14.73a1.69,1.69,0,1,0-2.44-2.34Z" style="fill: rgb(239, 102, 3); transform-origin: 408.71px 255.106px;" id="ellmawm3oh2o9" class="animable"></path><path d="M415.19,242.55a19.9,19.9,0,0,0,.23,24.95,1.7,1.7,0,0,0,2.39.18,1.68,1.68,0,0,0,.58-1.3,1.64,1.64,0,0,0-.4-1.08,16.52,16.52,0,0,1-.19-20.6,1.69,1.69,0,1,0-2.61-2.15Z" style="fill: rgb(239, 102, 3); transform-origin: 414.649px 255.01px;" id="el1ls2w53ioc2" class="animable"></path><path d="M420.06,247.16a12.31,12.31,0,0,0,.31,15.83,1.69,1.69,0,0,0,3-1.1,1.62,1.62,0,0,0-.4-1.07,9,9,0,0,1-.23-11.58,1.69,1.69,0,0,0-2.66-2.08Z" style="fill: rgb(239, 102, 3); transform-origin: 420.35px 255.091px;" id="elnz7608kt5wb" class="animable"></path><path d="M109.69,238c4,4.18,6.39,10.58,6.34,17.09s-2.55,13-6.7,17.14a1.69,1.69,0,1,1-2.38-2.4c3.53-3.51,5.66-9,5.7-14.76s-2-11.17-5.4-14.73a1.7,1.7,0,0,1,0-2.39A1.68,1.68,0,0,1,109.69,238Z" style="fill: rgb(239, 102, 3); transform-origin: 111.238px 255.087px;" id="ellkme1ynien" class="animable"></path><path d="M104.77,242.55a19.89,19.89,0,0,1-.24,24.95,1.69,1.69,0,0,1-2.38.18,1.72,1.72,0,0,1-.59-1.3,1.66,1.66,0,0,1,.41-1.08,16.52,16.52,0,0,0,.19-20.6,1.69,1.69,0,0,1,2.61-2.15Z" style="fill: rgb(239, 102, 3); transform-origin: 105.305px 255.011px;" id="ellsj1wffj65" class="animable"></path><path d="M99.9,247.16A12.33,12.33,0,0,1,99.58,263a1.68,1.68,0,0,1-2.38.21,1.7,1.7,0,0,1-.6-1.31,1.67,1.67,0,0,1,.4-1.07,8.94,8.94,0,0,0,.24-11.58,1.68,1.68,0,0,1,.29-2.37A1.7,1.7,0,0,1,99.9,247.16Z" style="fill: rgb(239, 102, 3); transform-origin: 99.6116px 255.065px;" id="elurch7jodfo" class="animable"></path><path d="M277.08,83.31c-4.19,4-10.58,6.38-17.1,6.34S247,87.1,242.85,83a1.69,1.69,0,0,1,0-2.39,1.72,1.72,0,0,1,1.21-.49,1.64,1.64,0,0,1,1.18.5c3.51,3.53,9,5.66,14.76,5.7a21.42,21.42,0,0,0,14.74-5.4,1.69,1.69,0,0,1,2.34,2.44Z" style="fill: rgb(239, 102, 3); transform-origin: 259.978px 84.8852px;" id="elq5qu66ii4j" class="animable"></path><path d="M272.5,78.38a19.87,19.87,0,0,1-24.95-.23,1.69,1.69,0,1,1,2.2-2.56,16.52,16.52,0,0,0,20.6.19,1.69,1.69,0,0,1,2.15,2.6Z" style="fill: rgb(239, 102, 3); transform-origin: 259.965px 78.8965px;" id="elkadiecldcq" class="animable"></path><path d="M267.88,73.52a12.33,12.33,0,0,1-15.83-.32,1.69,1.69,0,0,1,1.1-3,1.64,1.64,0,0,1,1.08.4,8.94,8.94,0,0,0,11.57.23,1.69,1.69,0,0,1,2.08,2.67Z" style="fill: rgb(239, 102, 3); transform-origin: 259.98px 73.2194px;" id="ele0kwtg1n8as" class="animable"></path></g><g id="freepik--Device--inject-52" class="animable" style="transform-origin: 257.38px 294.175px;"><ellipse cx="257.38" cy="375.57" rx="161.21" ry="50.4" style="fill: rgb(239, 102, 3); transform-origin: 257.38px 375.57px;" id="elmrd1y6zckb" class="animable"></ellipse><g id="elgu1yffsc9rg"><ellipse cx="257.38" cy="375.57" rx="161.21" ry="50.4" style="fill: rgb(255, 255, 255); opacity: 0.5; transform-origin: 257.38px 375.57px;" class="animable"></ellipse></g><ellipse cx="259" cy="370.22" rx="146.88" ry="44.61" style="fill: rgb(38, 50, 56); stroke: rgb(38, 50, 56); stroke-miterlimit: 10; transform-origin: 259px 370.22px;" id="elgp9p7uqldzu" class="animable"></ellipse><ellipse cx="259" cy="359.32" rx="130.96" ry="37.83" style="fill: rgb(255, 255, 255); stroke: rgb(38, 50, 56); stroke-miterlimit: 10; transform-origin: 259px 359.32px;" id="eljnu3klv07v" class="animable"></ellipse><ellipse cx="259" cy="358.07" rx="119.44" ry="33.26" style="fill: rgb(255, 255, 255); stroke: rgb(38, 50, 56); stroke-miterlimit: 10; transform-origin: 259px 358.07px;" id="elin8pv9tftz" class="animable"></ellipse><ellipse cx="259" cy="363.47" rx="117.86" ry="27.85" style="fill: rgb(255, 255, 255); stroke: rgb(38, 50, 56); stroke-miterlimit: 10; transform-origin: 259px 363.47px;" id="elm0up1ts9t3" class="animable"></ellipse><path d="M146.54,386.47a4.08,4.08,0,1,1-4-3.54A3.81,3.81,0,0,1,146.54,386.47Z" style="fill: rgb(255, 255, 255); stroke: rgb(38, 50, 56); stroke-miterlimit: 10; transform-origin: 142.496px 387.007px;" id="elvgm4xj38of" class="animable"></path><ellipse cx="200.69" cy="401.92" rx="4.04" ry="3.54" style="fill: rgb(255, 255, 255); stroke: rgb(38, 50, 56); stroke-miterlimit: 10; transform-origin: 200.69px 401.92px;" id="elpe0h8dkf9y" class="animable"></ellipse><path d="M274,404.45a4.08,4.08,0,1,1-4-3.54A3.81,3.81,0,0,1,274,404.45Z" style="fill: rgb(255, 255, 255); stroke: rgb(38, 50, 56); stroke-miterlimit: 10; transform-origin: 269.956px 404.987px;" id="elyq49uv4x2v" class="animable"></path><ellipse cx="338.65" cy="398.38" rx="4.04" ry="3.54" style="fill: rgb(255, 255, 255); stroke: rgb(38, 50, 56); stroke-miterlimit: 10; transform-origin: 338.65px 398.38px;" id="elu7oytu1mstj" class="animable"></ellipse><ellipse cx="383.12" cy="382.21" rx="4.04" ry="3.54" style="fill: rgb(255, 255, 255); stroke: rgb(38, 50, 56); stroke-miterlimit: 10; transform-origin: 383.12px 382.21px;" id="ell14r2a1t4ep" class="animable"></ellipse><path d="M401.22,362.73c-.67,1.28-3,1.38-5.22.23s-3.47-3.13-2.8-4.41,3-1.38,5.22-.23S401.89,361.45,401.22,362.73Z" style="fill: rgb(255, 255, 255); stroke: rgb(38, 50, 56); stroke-miterlimit: 10; transform-origin: 397.21px 360.64px;" id="elvn5e95w3khp" class="animable"></path><path d="M116.78,362.73c.67,1.28,3,1.38,5.22.23s3.47-3.13,2.8-4.41-3-1.38-5.22-.23S116.11,361.45,116.78,362.73Z" style="fill: rgb(255, 255, 255); stroke: rgb(38, 50, 56); stroke-miterlimit: 10; transform-origin: 120.79px 360.64px;" id="elci0rfyp920q" class="animable"></path><line x1="139.37" y1="350.82" x2="139.37" y2="316.7" style="fill: none; stroke: rgb(38, 50, 56); stroke-miterlimit: 10; transform-origin: 139.37px 333.76px;" id="el96eey73xm0c" class="animable"></line><line x1="161.41" y1="375.7" x2="161.41" y2="358.64" style="fill: none; stroke: rgb(38, 50, 56); stroke-miterlimit: 10; transform-origin: 161.41px 367.17px;" id="ellrydtyid9k" class="animable"></line><line x1="161.41" y1="354.37" x2="161.41" y2="320.25" style="fill: none; stroke: rgb(38, 50, 56); stroke-miterlimit: 10; transform-origin: 161.41px 337.31px;" id="eln4m6rbhzjo" class="animable"></line><line x1="358.32" y1="377.12" x2="358.32" y2="343" style="fill: none; stroke: rgb(38, 50, 56); stroke-miterlimit: 10; transform-origin: 358.32px 360.06px;" id="elwcm7q14761" class="animable"></line><line x1="337.6" y1="383.04" x2="337.6" y2="308.01" style="fill: none; stroke: rgb(38, 50, 56); stroke-miterlimit: 10; transform-origin: 337.6px 345.525px;" id="eljzeqxvtoizm" class="animable"></line><line x1="251.69" y1="390.63" x2="251.69" y2="374.99" style="fill: none; stroke: rgb(38, 50, 56); stroke-miterlimit: 10; transform-origin: 251.69px 382.81px;" id="elp6sqgp2xvah" class="animable"></line><line x1="186.1" y1="384.96" x2="186.1" y2="346.71" style="fill: none; stroke: rgb(38, 50, 56); stroke-miterlimit: 10; transform-origin: 186.1px 365.835px;" id="ela9y0ne1m0pf" class="animable"></line><line x1="302.69" y1="389.62" x2="302.69" y2="381.89" style="fill: none; stroke: rgb(38, 50, 56); stroke-miterlimit: 10; transform-origin: 302.69px 385.755px;" id="el1wfd7qhe3hh" class="animable"></line><line x1="302.69" y1="379.48" x2="302.69" y2="363.7" style="fill: none; stroke: rgb(38, 50, 56); stroke-miterlimit: 10; transform-origin: 302.69px 371.59px;" id="elrnz85enx1mm" class="animable"></line><line x1="251.69" y1="367.88" x2="251.69" y2="359.35" style="fill: none; stroke: rgb(38, 50, 56); stroke-miterlimit: 10; transform-origin: 251.69px 363.615px;" id="elxedjz5o7v1s" class="animable"></line><line x1="358.32" y1="335.18" x2="358.32" y2="319.54" style="fill: none; stroke: rgb(38, 50, 56); stroke-miterlimit: 10; transform-origin: 358.32px 327.36px;" id="elvuh1laqpxr" class="animable"></line><line x1="378.23" y1="362.19" x2="378.23" y2="286.13" style="fill: none; stroke: rgb(38, 50, 56); stroke-miterlimit: 10; transform-origin: 378.23px 324.16px;" id="elq3g5k7kd33" class="animable"></line><line x1="139.37" y1="311.72" x2="139.37" y2="293.26" style="fill: none; stroke: rgb(38, 50, 56); stroke-miterlimit: 10; transform-origin: 139.37px 302.49px;" id="eljyl6qy3fx1" class="animable"></line><rect x="319.9" y="255.64" width="4.75" height="12.56" style="fill: rgb(38, 50, 56); stroke: rgb(38, 50, 56); stroke-miterlimit: 10; transform-origin: 322.275px 261.92px;" id="elxoy3dcsvzhh" class="animable"></rect><rect x="196.44" y="162.38" width="125.03" height="27.08" style="fill: rgb(38, 50, 56); stroke: rgb(38, 50, 56); stroke-miterlimit: 10; transform-origin: 258.955px 175.92px;" id="elh6fce1lnxj" class="animable"></rect><rect x="319.9" y="329.74" width="4.75" height="12.56" style="fill: rgb(38, 50, 56); stroke: rgb(38, 50, 56); stroke-miterlimit: 10; transform-origin: 322.275px 336.02px;" id="elejl5xl8hi0v" class="animable"></rect><rect x="192.83" y="329.74" width="4.75" height="12.56" style="fill: rgb(38, 50, 56); stroke: rgb(38, 50, 56); stroke-miterlimit: 10; transform-origin: 195.205px 336.02px;" id="elf1r26pcnplq" class="animable"></rect><rect x="192.14" y="182.97" width="4.75" height="12.56" style="fill: rgb(38, 50, 56); stroke: rgb(38, 50, 56); stroke-miterlimit: 10; transform-origin: 194.515px 189.25px;" id="ele7chqdqhhp9" class="animable"></rect><rect x="192.14" y="293.16" width="4.75" height="12.56" style="fill: rgb(38, 50, 56); stroke: rgb(38, 50, 56); stroke-miterlimit: 10; transform-origin: 194.515px 299.44px;" id="eli2ff26srehp" class="animable"></rect><rect x="192.14" y="255.56" width="4.75" height="12.56" style="fill: rgb(38, 50, 56); stroke: rgb(38, 50, 56); stroke-miterlimit: 10; transform-origin: 194.515px 261.84px;" id="elfe5s4zlgvvk" class="animable"></rect><rect x="321.12" y="182.97" width="4.75" height="12.56" style="fill: rgb(38, 50, 56); stroke: rgb(38, 50, 56); stroke-miterlimit: 10; transform-origin: 323.495px 189.25px;" id="elhsrgc3qp4fu" class="animable"></rect><rect x="321.12" y="293.16" width="4.75" height="12.56" style="fill: rgb(38, 50, 56); stroke: rgb(38, 50, 56); stroke-miterlimit: 10; transform-origin: 323.495px 299.44px;" id="el1tzmvsxpy78" class="animable"></rect><rect x="192.14" y="219.2" width="4.75" height="12.56" style="fill: rgb(38, 50, 56); stroke: rgb(38, 50, 56); stroke-miterlimit: 10; transform-origin: 194.515px 225.48px;" id="el5z07clr3md" class="animable"></rect><rect x="321.12" y="219.2" width="4.75" height="12.56" style="fill: rgb(38, 50, 56); stroke: rgb(38, 50, 56); stroke-miterlimit: 10; transform-origin: 323.495px 225.48px;" id="elsij13aweibj" class="animable"></rect><rect x="196.44" y="176.02" width="125.03" height="27.08" style="fill: rgb(255, 255, 255); stroke: rgb(38, 50, 56); stroke-miterlimit: 10; transform-origin: 258.955px 189.56px;" id="elx4cjp58ggdp" class="animable"></rect><rect x="222.89" y="182.93" width="7.14" height="13.26" style="fill: rgb(239, 102, 3); stroke: rgb(38, 50, 56); stroke-miterlimit: 10; transform-origin: 226.46px 189.56px;" id="elotivsxjexb" class="animable"></rect><rect x="211.94" y="182.93" width="7.14" height="13.26" style="fill: rgb(239, 102, 3); stroke: rgb(38, 50, 56); stroke-miterlimit: 10; transform-origin: 215.51px 189.56px;" id="ellvp3qztk4lf" class="animable led2"></rect><rect x="202.45" y="182.93" width="5.69" height="13.26" style="fill: rgb(239, 102, 3); stroke: rgb(38, 50, 56); stroke-miterlimit: 10; transform-origin: 205.295px 189.56px;" id="eltq1hpcqjqo" class="animable led1"></rect><rect x="233.84" y="182.93" width="7.14" height="13.26" style="fill: rgb(239, 102, 3); stroke: rgb(38, 50, 56); stroke-miterlimit: 10; transform-origin: 237.41px 189.56px;" id="eln24k04ayyl" class="animable"></rect><rect x="244.78" y="182.93" width="43.83" height="13.26" style="fill: rgb(239, 102, 3); stroke: rgb(38, 50, 56); stroke-miterlimit: 10; transform-origin: 266.695px 189.56px;" id="el9ct9yvdra15" class="animable"></rect><circle cx="300.29" cy="188.98" r="3.34" style="fill: rgb(255, 255, 255); stroke: rgb(38, 50, 56); stroke-miterlimit: 10; transform-origin: 300.29px 188.98px;" id="el85yw2om7ka5" class="animable"></circle><path d="M316.72,189a3.35,3.35,0,1,0-3.34,3.35A3.35,3.35,0,0,0,316.72,189Z" style="fill: rgb(239, 102, 3); stroke: rgb(38, 50, 56); stroke-miterlimit: 10; transform-origin: 313.37px 189px;" id="elsogaq45cv48" class="animable"></path><circle cx="280.79" cy="188.98" r="3.34" style="fill: rgb(255, 255, 255); stroke: rgb(38, 50, 56); stroke-miterlimit: 10; transform-origin: 280.79px 188.98px;" id="elad41js8fe34" class="animable"></circle><rect x="201.18" y="203.1" width="115.54" height="9.27" style="fill: rgb(38, 50, 56); stroke: rgb(38, 50, 56); stroke-miterlimit: 10; transform-origin: 258.95px 207.735px;" id="elje8k8r75rs" class="animable"></rect><rect x="196.44" y="212.38" width="125.03" height="27.08" style="fill: rgb(255, 255, 255); stroke: rgb(38, 50, 56); stroke-miterlimit: 10; transform-origin: 258.955px 225.92px;" id="elcy22rsd1z48" class="animable"></rect><rect x="211.94" y="219.29" width="7.14" height="13.26" style="fill: rgb(239, 102, 3); stroke: rgb(38, 50, 56); stroke-miterlimit: 10; transform-origin: 215.51px 225.92px;" id="el5yz9uaxsyjd" class="animable"></rect><rect x="233.84" y="219.29" width="7.14" height="13.26" style="fill: rgb(239, 102, 3); stroke: rgb(38, 50, 56); stroke-miterlimit: 10; transform-origin: 237.41px 225.92px;" id="elv9jqz74p2fl" class="animable"></rect><rect x="222.89" y="219.29" width="7.14" height="13.26" style="fill: rgb(239, 102, 3); stroke: rgb(38, 50, 56); stroke-miterlimit: 10; transform-origin: 226.46px 225.92px;" id="elszq7hpw0xkc" class="animable"></rect><rect x="202.45" y="219.29" width="5.69" height="13.26" style="fill: rgb(239, 102, 3); stroke: rgb(38, 50, 56); stroke-miterlimit: 10; transform-origin: 205.295px 225.92px;" id="eljyfv36bv9io" class="animable"></rect><rect x="244.78" y="219.29" width="43.83" height="13.26" style="fill: rgb(239, 102, 3); stroke: rgb(38, 50, 56); stroke-miterlimit: 10; transform-origin: 266.695px 225.92px;" id="elh3zrnskc15m" class="animable"></rect><circle cx="300.29" cy="225.34" r="3.34" style="fill: rgb(239, 102, 3); stroke: rgb(38, 50, 56); stroke-miterlimit: 10; transform-origin: 300.29px 225.34px;" id="elg9wh4w8s8xg" class="animable"></circle><path d="M316.72,225.34a3.35,3.35,0,1,0-3.34,3.34A3.34,3.34,0,0,0,316.72,225.34Z" style="fill: rgb(255, 255, 255); stroke: rgb(38, 50, 56); stroke-miterlimit: 10; transform-origin: 313.37px 225.33px;" id="elklvjc9a4yxg" class="animable"></path><circle cx="280.79" cy="225.34" r="3.34" style="fill: rgb(255, 255, 255); stroke: rgb(38, 50, 56); stroke-miterlimit: 10; transform-origin: 280.79px 225.34px;" id="eln5ufwrigxto" class="animable"></circle><rect x="201.18" y="239.46" width="115.54" height="9.27" style="fill: rgb(38, 50, 56); stroke: rgb(38, 50, 56); stroke-miterlimit: 10; transform-origin: 258.95px 244.095px;" id="elhgoxmvw6de6" class="animable"></rect><rect x="196.44" y="248.73" width="125.03" height="27.08" style="fill: rgb(255, 255, 255); stroke: rgb(38, 50, 56); stroke-miterlimit: 10; transform-origin: 258.955px 262.27px;" id="elz9gj8c1zunq" class="animable"></rect><rect x="222.89" y="255.64" width="7.14" height="13.26" style="fill: rgb(239, 102, 3); stroke: rgb(38, 50, 56); stroke-miterlimit: 10; transform-origin: 226.46px 262.27px;" id="el4vdi2ugjknx" class="animable"></rect><rect x="233.84" y="255.64" width="7.14" height="13.26" style="fill: rgb(239, 102, 3); stroke: rgb(38, 50, 56); stroke-miterlimit: 10; transform-origin: 237.41px 262.27px;" id="elgtbnk113j36" class="animable"></rect><rect x="211.94" y="255.64" width="7.14" height="13.26" style="fill: rgb(239, 102, 3); stroke: rgb(38, 50, 56); stroke-miterlimit: 10; transform-origin: 215.51px 262.27px;" id="elhzf4dvx4hif" class="animable"></rect><rect x="244.78" y="255.64" width="43.83" height="13.26" style="fill: rgb(239, 102, 3); stroke: rgb(38, 50, 56); stroke-miterlimit: 10; transform-origin: 266.695px 262.27px;" id="elk6cmtzytcs" class="animable"></rect><rect x="202.45" y="255.64" width="5.69" height="13.26" style="fill: rgb(239, 102, 3); stroke: rgb(38, 50, 56); stroke-miterlimit: 10; transform-origin: 205.295px 262.27px;" id="el5nmct2y0q5x" class="animable"></rect><circle cx="300.29" cy="261.69" r="3.34" style="fill: rgb(255, 255, 255); stroke: rgb(38, 50, 56); stroke-miterlimit: 10; transform-origin: 300.29px 261.69px;" id="el05oimttep9ad" class="animable"></circle><path d="M316.72,261.69a3.35,3.35,0,1,0-3.34,3.35A3.35,3.35,0,0,0,316.72,261.69Z" style="fill: rgb(239, 102, 3); stroke: rgb(38, 50, 56); stroke-miterlimit: 10; transform-origin: 313.37px 261.69px;" id="elsqtz0u7nrqf" class="animable"></path><circle cx="280.79" cy="261.69" r="3.34" style="fill: rgb(255, 255, 255); stroke: rgb(38, 50, 56); stroke-miterlimit: 10; transform-origin: 280.79px 261.69px;" id="el1cfurdnwpcd" class="animable"></circle><rect x="201.18" y="275.81" width="115.54" height="9.27" style="fill: rgb(38, 50, 56); stroke: rgb(38, 50, 56); stroke-miterlimit: 10; transform-origin: 258.95px 280.445px;" id="eld8otifu6ih5" class="animable"></rect><rect x="196.44" y="285.09" width="125.03" height="27.08" style="fill: rgb(255, 255, 255); stroke: rgb(38, 50, 56); stroke-miterlimit: 10; transform-origin: 258.955px 298.63px;" id="elo932lz1brk" class="animable"></rect><rect x="233.84" y="292" width="7.14" height="13.26" style="fill: rgb(239, 102, 3); stroke: rgb(38, 50, 56); stroke-miterlimit: 10; transform-origin: 237.41px 298.63px;" id="elhcyjfeuhyer" class="animable"></rect><rect x="211.94" y="292" width="7.14" height="13.26" style="fill: rgb(239, 102, 3); stroke: rgb(38, 50, 56); stroke-miterlimit: 10; transform-origin: 215.51px 298.63px;" id="elcpcwuekg8zq" class="animable"></rect><rect x="222.89" y="292" width="7.14" height="13.26" style="fill: rgb(239, 102, 3); stroke: rgb(38, 50, 56); stroke-miterlimit: 10; transform-origin: 226.46px 298.63px;" id="el2xurkm8uizd" class="animable"></rect><rect x="202.45" y="292" width="5.69" height="13.26" style="fill: rgb(239, 102, 3); stroke: rgb(38, 50, 56); stroke-miterlimit: 10; transform-origin: 205.295px 298.63px;" id="elwxk9wec2xdd" class="animable led3"></rect><rect x="244.78" y="292" width="43.83" height="13.26" style="fill: rgb(239, 102, 3); stroke: rgb(38, 50, 56); stroke-miterlimit: 10; transform-origin: 266.695px 298.63px;" id="elfhl4yclxt7c" class="animable"></rect><circle cx="300.29" cy="298.05" r="3.34" style="fill: rgb(239, 102, 3); stroke: rgb(38, 50, 56); stroke-miterlimit: 10; transform-origin: 300.29px 298.05px;" id="elb8zwjzvd3y7" class="animable"></circle><path d="M316.72,298.05a3.35,3.35,0,1,0-3.34,3.34A3.34,3.34,0,0,0,316.72,298.05Z" style="fill: rgb(255, 255, 255); stroke: rgb(38, 50, 56); stroke-miterlimit: 10; transform-origin: 313.37px 298.04px;" id="elj43o5btv6i" class="animable"></path><circle cx="280.79" cy="298.05" r="3.34" style="fill: rgb(255, 255, 255); stroke: rgb(38, 50, 56); stroke-miterlimit: 10; transform-origin: 280.79px 298.05px;" id="el8rmeqvtk8fp" class="animable"></circle><rect x="201.18" y="312.17" width="115.54" height="9.27" style="fill: rgb(38, 50, 56); stroke: rgb(38, 50, 56); stroke-miterlimit: 10; transform-origin: 258.95px 316.805px;" id="eli1mtu0pa2rf" class="animable"></rect><rect x="196.44" y="321.44" width="125.03" height="27.08" style="fill: rgb(255, 255, 255);stroke: rgb(38, 50, 56);stroke-miterlimit: 10;transform-origin: 258.955px 334.98px;" id="el1kuu1t91qro" class="animable"></rect><rect x="211.94" y="328.35" width="7.14" height="13.26" style="fill: rgb(239, 102, 3); stroke: rgb(38, 50, 56); stroke-miterlimit: 10; transform-origin: 215.51px 334.98px;" id="el2nh32t3dcoz" class="animable led2"></rect><rect x="222.89" y="328.35" width="7.14" height="13.26" style="fill: rgb(239, 102, 3); stroke: rgb(38, 50, 56); stroke-miterlimit: 10; transform-origin: 226.46px 334.98px;" id="elvu8oou5peul" class="animable led3"></rect><rect x="233.84" y="328.35" width="7.14" height="13.26" style="fill: rgb(239, 102, 3); stroke: rgb(38, 50, 56); stroke-miterlimit: 10; transform-origin: 237.41px 334.98px;" id="elf2mohz2ewo5" class="animable led1"></rect><rect x="202.45" y="328.35" width="5.69" height="13.26" style="fill: rgb(239, 102, 3); stroke: rgb(38, 50, 56); stroke-miterlimit: 10; transform-origin: 205.295px 334.98px;" id="elbbbhk57y2tp" class="animable led1"></rect><rect x="244.78" y="328.35" width="43.83" height="13.26" style="fill: rgb(239, 102, 3); stroke: rgb(38, 50, 56); stroke-miterlimit: 10; transform-origin: 266.695px 334.98px;" id="elc2alpgb763a" class="animable"></rect><circle cx="300.29" cy="334.4" r="3.34" style="fill: rgb(255, 255, 255); stroke: rgb(38, 50, 56); stroke-miterlimit: 10; transform-origin: 300.29px 334.4px;" id="elj9de8cqy3h" class="animable"></circle><path d="M316.72,334.4a3.35,3.35,0,1,0-3.34,3.35A3.35,3.35,0,0,0,316.72,334.4Z" style="fill: rgb(239, 102, 3); stroke: rgb(38, 50, 56); stroke-miterlimit: 10; transform-origin: 313.37px 334.4px;" id="elh2345mg0cf" class="animable"></path><circle cx="280.79" cy="334.4" r="3.34" style="fill: rgb(255, 255, 255); stroke: rgb(38, 50, 56); stroke-miterlimit: 10; transform-origin: 280.79px 334.4px;" id="elv25yhmoonkf" class="animable"></circle></g><defs>     <filter id="active" height="200%">         <feMorphology in="SourceAlpha" result="DILATED" operator="dilate" radius="2"></feMorphology>                <feFlood flood-color="#32DFEC" flood-opacity="1" result="PINK"></feFlood>        <feComposite in="PINK" in2="DILATED" operator="in" result="OUTLINE"></feComposite>        <feMerge>            <feMergeNode in="OUTLINE"></feMergeNode>            <feMergeNode in="SourceGraphic"></feMergeNode>        </feMerge>    </filter>    <filter id="hover" height="200%">        <feMorphology in="SourceAlpha" result="DILATED" operator="dilate" radius="2"></feMorphology>                <feFlood flood-color="#ff0000" flood-opacity="0.5" result="PINK"></feFlood>        <feComposite in="PINK" in2="DILATED" operator="in" result="OUTLINE"></feComposite>        <feMerge>            <feMergeNode in="OUTLINE"></feMergeNode>            <feMergeNode in="SourceGraphic"></feMergeNode>        </feMerge>            <feColorMatrix type="matrix" values="0   0   0   0   0                0   1   0   0   0                0   0   0   0   0                0   0   0   1   0 "></feColorMatrix>    </filter></defs></svg>