<svg width="190" height="39" viewBox="0 0 190 39" fill="none" xmlns="http://www.w3.org/2000/svg">
<path d="M49.9878 13.5699H53.0776V15.7568H53.2582C53.4321 15.3823 53.6728 15.0345 53.9805 14.7135C54.2747 14.3925 54.6158 14.1183 55.0037 13.8909C55.3916 13.6635 55.7929 13.4762 56.2075 13.3291C56.6222 13.182 57.0302 13.1084 57.4314 13.1084C57.8996 13.1084 58.3009 13.1552 58.6352 13.2488C58.9696 13.3291 59.2706 13.4495 59.5381 13.61L58.5951 16.5794C58.3811 16.4724 58.1403 16.3988 57.8728 16.3587C57.6187 16.3052 57.3044 16.2785 56.9298 16.2785C56.3948 16.2785 55.9066 16.3855 55.4652 16.5995C55.0238 16.8135 54.6426 17.1078 54.3216 17.4823C53.9872 17.8568 53.7263 18.3049 53.5391 18.8266C53.3518 19.3348 53.2582 19.8766 53.2582 20.4517V27.9756H49.9878V13.5699Z" fill="white"/>
<path d="M70.7337 26.0299H70.5532C70.1251 26.712 69.5165 27.2872 68.7274 27.7553C67.9248 28.2101 67.0286 28.4375 66.0388 28.4375C64.2197 28.4375 62.8554 27.8958 61.9458 26.8123C61.0497 25.7289 60.6016 24.2843 60.6016 22.4786V13.5703H63.8519V22.0372C63.8519 23.2945 64.1395 24.1706 64.7146 24.6655C65.3032 25.1604 66.0656 25.4079 67.0019 25.4079C67.5503 25.4079 68.0452 25.2942 68.4866 25.0668C68.928 24.826 69.3025 24.505 69.6102 24.1038C69.9312 23.7025 70.1653 23.241 70.3124 22.7194C70.4729 22.2111 70.5532 21.6694 70.5532 21.0942V13.5703H73.8235V27.976H70.7337V26.0299Z" fill="white"/>
<path d="M76.512 13.5699H79.6018V15.516H79.7823C80.2237 14.8071 80.8457 14.232 81.6483 13.7906C82.4508 13.3358 83.3069 13.1084 84.2164 13.1084C85.2865 13.1084 86.2094 13.3559 86.9852 13.8508C87.761 14.359 88.3228 15.0144 88.6706 15.817C89.1655 15.0546 89.8209 14.4125 90.6368 13.8909C91.4661 13.3692 92.4559 13.1084 93.6062 13.1084C94.489 13.1084 95.2515 13.2488 95.8935 13.5297C96.5489 13.8106 97.0839 14.2119 97.4986 14.7336C97.9132 15.2418 98.2343 15.8504 98.4616 16.5594C98.6757 17.2683 98.7827 18.0641 98.7827 18.9469V27.9756H95.5123V19.5087C95.5123 18.2514 95.2715 17.3753 94.79 16.8804C94.3085 16.3855 93.6129 16.138 92.7034 16.138C92.1683 16.138 91.6935 16.2517 91.2788 16.4791C90.8508 16.7199 90.4897 17.0409 90.1954 17.4422C89.9011 17.8434 89.6804 18.3049 89.5333 18.8266C89.3728 19.3616 89.2925 19.9234 89.2925 20.5119V27.9756H86.0222V19.5087C86.0222 18.2514 85.7747 17.3753 85.2798 16.8804C84.7849 16.3855 84.0693 16.138 83.133 16.138C82.6113 16.138 82.1499 16.2517 81.7486 16.4791C81.3339 16.7199 80.9795 17.0409 80.6852 17.4422C80.3909 17.8434 80.1636 18.3049 80.0031 18.8266C79.8559 19.3616 79.7823 19.9234 79.7823 20.5119V27.9756H76.512V13.5699Z" fill="white"/>
<path fill-rule="evenodd" clip-rule="evenodd" d="M110.319 26.21H110.139C109.711 26.7718 109.156 27.2867 108.473 27.7549C107.778 28.2097 106.902 28.4371 105.845 28.4371C105.083 28.4371 104.374 28.3167 103.718 28.0759C103.049 27.8351 102.468 27.4941 101.973 27.0527C101.491 26.6113 101.103 26.0896 100.809 25.4877C100.528 24.8858 100.388 24.2237 100.388 23.5014C100.388 22.739 100.542 22.0568 100.849 21.4549C101.157 20.8396 101.578 20.3313 102.113 19.9301C102.648 19.5154 103.29 19.1944 104.039 18.967C104.775 18.7396 105.578 18.6259 106.447 18.6259C107.397 18.6259 108.199 18.7195 108.855 18.9068C109.497 19.0941 109.985 19.268 110.319 19.4285V18.8667C110.319 18.4387 110.226 18.0374 110.038 17.6629C109.851 17.2883 109.597 16.9673 109.276 16.6998C108.955 16.4457 108.587 16.245 108.172 16.0979C107.758 15.9508 107.33 15.8772 106.888 15.8772C106.166 15.8772 105.511 16.0176 104.922 16.2985C104.347 16.5794 103.832 17.0342 103.377 17.6629L100.809 15.9574C101.491 15.0211 102.341 14.3122 103.357 13.8307C104.374 13.3492 105.531 13.1084 106.828 13.1084C108.955 13.1084 110.6 13.6367 111.764 14.6934C112.928 15.7501 113.509 17.2549 113.509 19.2078V27.9756H110.319V26.21ZM110.319 21.9766C109.891 21.7224 109.41 21.5151 108.875 21.3546C108.353 21.1941 107.744 21.1138 107.049 21.1138C106.032 21.1138 105.223 21.3546 104.621 21.8361C104.019 22.3043 103.718 22.866 103.718 23.5215C103.718 23.8826 103.792 24.1969 103.939 24.4644C104.099 24.7186 104.3 24.946 104.541 25.1466C104.795 25.3473 105.083 25.4944 105.404 25.588C105.725 25.6816 106.052 25.7285 106.387 25.7285C106.908 25.7285 107.41 25.6281 107.892 25.4275C108.373 25.2269 108.788 24.9527 109.135 24.6049C109.497 24.2571 109.784 23.8625 109.998 23.4211C110.212 22.9664 110.319 22.4848 110.319 21.9766Z" fill="white"/>
<path d="M115.977 6.94922H119.248V13.189L119.067 15.5164H119.248C119.662 14.8342 120.271 14.2591 121.073 13.7909C121.876 13.3362 122.766 13.1088 123.742 13.1088C124.678 13.1088 125.487 13.2492 126.17 13.5301C126.865 13.811 127.434 14.219 127.875 14.754C128.33 15.289 128.664 15.9177 128.878 16.64C129.092 17.3757 129.199 18.1849 129.199 19.0677V27.976H125.949V19.5091C125.949 18.3186 125.655 17.4559 125.066 16.9209C124.491 16.3992 123.762 16.1384 122.879 16.1384C122.317 16.1384 121.816 16.2588 121.374 16.4995C120.933 16.7403 120.552 17.068 120.231 17.4827C119.91 17.8973 119.662 18.3655 119.488 18.8871C119.328 19.4221 119.248 19.9706 119.248 20.5323V27.976H115.977V6.94922Z" fill="white"/>
<path d="M131.988 6.94922H133.051V14.5534L132.931 17.1416H133.051C133.573 15.8976 134.309 14.9145 135.258 14.1922C136.195 13.4699 137.399 13.1088 138.87 13.1088C139.726 13.1088 140.475 13.2559 141.117 13.5502C141.746 13.8444 142.267 14.2524 142.682 14.7741C143.097 15.3091 143.404 15.9311 143.605 16.64C143.806 17.3623 143.906 18.1448 143.906 18.9874V27.976H142.863V19.2081C142.863 17.6298 142.521 16.3725 141.839 15.4362C141.144 14.5132 140.074 14.0518 138.629 14.0518C137.867 14.0518 137.144 14.2257 136.462 14.5734C135.793 14.9346 135.205 15.4161 134.697 16.018C134.188 16.6199 133.787 17.3288 133.493 18.1448C133.199 18.9607 133.051 19.8301 133.051 20.753V27.976H131.988V6.94922Z" fill="white"/>
<path fill-rule="evenodd" clip-rule="evenodd" d="M153.115 13.1084C154.132 13.1084 155.075 13.3023 155.944 13.6902C156.813 14.0915 157.569 14.6332 158.211 15.3154C158.84 15.9976 159.335 16.8068 159.696 17.7431C160.057 18.666 160.238 19.6759 160.238 20.7727C160.238 21.8695 160.057 22.8861 159.696 23.8224C159.335 24.7453 158.84 25.5479 158.211 26.2301C157.569 26.9256 156.813 27.4673 155.944 27.8552C155.075 28.2431 154.132 28.4371 153.115 28.4371C152.085 28.4371 151.135 28.2431 150.266 27.8552C149.397 27.4673 148.648 26.9256 148.019 26.2301C147.377 25.5479 146.875 24.7453 146.514 23.8224C146.153 22.8861 145.972 21.8695 145.972 20.7727C145.972 19.6759 146.153 18.666 146.514 17.7431C146.875 16.8068 147.377 15.9976 148.019 15.3154C148.648 14.6332 149.397 14.0915 150.266 13.6902C151.135 13.3023 152.085 13.1084 153.115 13.1084ZM153.115 27.4941C153.891 27.4941 154.647 27.3269 155.382 26.9925C156.118 26.6581 156.767 26.1966 157.328 25.6081C157.904 25.0062 158.358 24.2973 158.693 23.4813C159.027 22.652 159.194 21.7492 159.194 20.7727C159.194 19.7963 159.027 18.8934 158.693 18.0641C158.358 17.2482 157.904 16.5393 157.328 15.9374C156.767 15.3488 156.118 14.8874 155.382 14.553C154.647 14.2186 153.891 14.0514 153.115 14.0514C152.313 14.0514 151.543 14.2186 150.808 14.553C150.085 14.8874 149.443 15.3488 148.882 15.9374C148.306 16.5393 147.852 17.2482 147.517 18.0641C147.196 18.8934 147.036 19.7963 147.036 20.7727C147.036 21.7492 147.196 22.652 147.517 23.4813C147.852 24.2973 148.306 25.0062 148.882 25.6081C149.443 26.1966 150.085 26.6581 150.808 26.9925C151.543 27.3269 152.313 27.4941 153.115 27.4941Z" fill="white"/>
<path d="M167.08 28.4371C166.344 28.4371 165.655 28.3301 165.013 28.116C164.384 27.902 163.816 27.6078 163.308 27.2332C162.813 26.8587 162.391 26.424 162.044 25.9291C161.682 25.4342 161.408 24.8925 161.221 24.3039L162.144 23.8826C162.545 25.0463 163.194 25.9358 164.09 26.5511C164.986 27.1797 165.983 27.4941 167.08 27.4941C168.457 27.4941 169.541 27.1797 170.33 26.5511C171.119 25.9358 171.514 25.1533 171.514 24.2036C171.514 23.8559 171.46 23.5281 171.353 23.2205C171.233 22.9262 171.019 22.6453 170.711 22.3778C170.403 22.1103 170.002 21.8762 169.507 21.6756C169.012 21.4616 168.384 21.2676 167.621 21.0937L165.755 20.6925C165.247 20.5721 164.745 20.4183 164.251 20.231C163.756 20.0437 163.308 19.803 162.906 19.5087C162.518 19.2144 162.197 18.8667 161.943 18.4654C161.689 18.0641 161.562 17.6027 161.562 17.081C161.562 16.4657 161.716 15.9173 162.023 15.4358C162.331 14.9409 162.739 14.5195 163.247 14.1718C163.756 13.8374 164.324 13.5766 164.953 13.3893C165.595 13.202 166.257 13.1084 166.939 13.1084C168.196 13.1084 169.307 13.3893 170.27 13.9511C171.246 14.5262 171.928 15.3622 172.316 16.459L171.413 16.8402C170.959 15.8638 170.37 15.1549 169.648 14.7135C168.925 14.2721 168.029 14.0514 166.959 14.0514C166.397 14.0514 165.856 14.1183 165.334 14.252C164.812 14.3858 164.351 14.5864 163.95 14.8539C163.548 15.1215 163.227 15.4425 162.987 15.817C162.746 16.1915 162.625 16.6129 162.625 17.081C162.625 17.4422 162.719 17.7699 162.906 18.0641C163.094 18.345 163.348 18.5992 163.669 18.8266C163.99 19.0539 164.371 19.2479 164.812 19.4084C165.254 19.5689 165.729 19.7094 166.237 19.8297L168.283 20.3113C169.741 20.6457 170.818 21.1473 171.514 21.816C172.223 22.4982 172.577 23.2673 172.577 24.1234C172.577 24.7253 172.45 25.2871 172.196 25.8087C171.942 26.3304 171.574 26.7851 171.092 27.173C170.611 27.5609 170.036 27.8686 169.367 28.096C168.685 28.3234 167.922 28.4371 167.08 28.4371Z" fill="white"/>
<path d="M176.128 14.5127H173.44V13.5697H176.128V9.17578H177.192V13.5697H180.823V14.5127H177.192V24.9057C177.192 25.3605 177.265 25.7484 177.412 26.0694C177.559 26.3904 177.747 26.6579 177.974 26.872C178.415 27.2866 178.937 27.4939 179.539 27.4939C179.807 27.4939 180.067 27.4739 180.322 27.4337C180.562 27.3802 180.823 27.2732 181.104 27.1127L181.425 27.9755C181.144 28.1226 180.85 28.2363 180.542 28.3165C180.221 28.3968 179.86 28.4369 179.459 28.4369C179.058 28.4369 178.67 28.3701 178.295 28.2363C177.907 28.1159 177.546 27.9153 177.212 27.6344C176.877 27.3535 176.616 26.979 176.429 26.5108C176.229 26.0427 176.128 25.4608 176.128 24.7653V14.5127Z" fill="white"/>
<path fill-rule="evenodd" clip-rule="evenodd" d="M189.029 11.6441C189.029 13.1289 187.825 14.3527 186.321 14.3527C184.836 14.3527 183.632 13.1289 183.632 11.6441C183.632 10.1594 184.836 8.93555 186.321 8.93555C187.825 8.93555 189.029 10.1594 189.029 11.6441ZM188.287 11.6441C188.287 10.5607 187.404 9.6779 186.321 9.6779C185.257 9.6779 184.374 10.5607 184.374 11.6441C184.374 12.7276 185.257 13.5903 186.321 13.5903C187.404 13.5903 188.287 12.7276 188.287 11.6441ZM186.923 12.0454L187.524 12.868H186.882L186.381 12.1859C186.354 12.1859 186.327 12.1859 186.301 12.1859H185.919V12.868H185.398V10.4002H186.301C186.923 10.4002 187.304 10.7413 187.304 11.283C187.304 11.6241 187.163 11.8849 186.923 12.0454ZM186.782 11.283C186.782 11.2027 186.782 10.9219 186.301 10.9219H185.919V11.6642H186.301C186.782 11.6642 186.782 11.3833 186.782 11.283Z" fill="white"/>
<path d="M23.6241 11.4038L33.4955 21.2551C33.8365 21.6163 34.0372 22.0777 34.0372 22.5793V32.4306C34.0372 33.4538 33.1945 34.2764 32.1713 34.2764C31.1681 34.2764 30.3254 33.4538 30.3254 32.4306V23.3417L22.32 15.3163L14.2945 23.3417V32.4306C14.2945 33.4538 13.4719 34.2764 12.4486 34.2764C11.4254 34.2764 10.6028 33.4538 10.6028 32.4306V22.5793C10.6028 22.0777 10.8034 21.6163 11.1445 21.2551L21.0158 11.4038V11.3838L21.0359 11.3637H21.056V11.3436H21.076V11.3236H21.0961V11.3035H21.1162V11.2835H21.1362L21.1563 11.2634L21.1763 11.2433L21.1964 11.2233H21.2165V11.2032H21.2365L21.2566 11.1831L21.2767 11.1631C21.999 10.6815 22.9821 10.7618 23.6241 11.4038Z" fill="url(#paint0_linear_757_23207)"/>
<path d="M34.2179 16.5398C33.2147 16.5197 32.3921 15.6971 32.3921 14.6739C32.3921 9.11621 27.8777 4.60188 22.3201 4.60188C16.7424 4.60188 12.228 9.11621 12.228 14.6739C12.228 15.6971 11.4255 16.5197 10.4022 16.5398C6.55002 16.7003 3.54046 19.9707 3.70097 23.843C3.86148 27.7153 7.13187 30.7449 11.0042 30.5844C11.0309 30.5844 11.0577 30.5844 11.0844 30.5844H12.4487C13.472 30.5844 14.2946 31.407 14.2946 32.4302C14.2946 33.4535 13.472 34.2761 12.4487 34.2761H11.1045C5.20575 34.4767 0.229954 29.8821 0.00925299 23.9834C-0.211448 18.6264 3.54046 14.0318 8.63664 13.0286C9.45925 6.20697 15.2777 0.910156 22.3201 0.910156C29.3624 0.910156 35.1809 6.20697 36.0035 13.0286C41.0997 14.0318 44.8516 18.6264 44.6309 23.9834C44.3901 29.8821 39.4344 34.4767 33.5357 34.2761H32.1714C31.1682 34.2761 30.3255 33.4535 30.3255 32.4302C30.3255 31.407 31.1682 30.5844 32.1714 30.5844H33.5557H33.636C37.5083 30.7449 40.7787 27.7153 40.9392 23.843C41.0796 19.9707 38.0901 16.7003 34.2179 16.5398Z" fill="url(#paint1_linear_757_23207)"/>
<path d="M8.75701 37.3455C7.89427 36.7837 7.67357 35.6401 8.23536 34.7773C9.15829 33.3929 10.2217 32.1289 11.4255 31.0656C14.415 28.357 18.1468 26.792 22.1796 26.792C27.9981 26.792 33.1946 30.0824 36.4248 35.2589C36.9666 36.1216 36.7057 37.2652 35.8229 37.807C34.9602 38.3487 33.8166 38.0879 33.2748 37.2251C30.7669 33.1722 26.7341 30.4837 22.1796 30.4837C19.0698 30.4837 16.2006 31.7277 13.8933 33.8143C12.9303 34.677 12.0675 35.7003 11.3252 36.8238C10.7634 37.6866 9.59969 37.9073 8.75701 37.3455Z" fill="url(#paint2_linear_757_23207)"/>
<defs>
<linearGradient id="paint0_linear_757_23207" x1="21.8986" y1="16.3596" x2="21.7381" y2="25.328" gradientUnits="userSpaceOnUse">
<stop stop-color="white"/>
<stop offset="1" stop-color="#CECECE"/>
</linearGradient>
<linearGradient id="paint1_linear_757_23207" x1="22.0793" y1="4.08022" x2="21.9389" y2="27.9761" gradientUnits="userSpaceOnUse">
<stop stop-color="white"/>
<stop offset="1" stop-color="#CECECE"/>
</linearGradient>
<linearGradient id="paint2_linear_757_23207" x1="22.3" y1="28.3168" x2="22.1395" y2="35.2789" gradientUnits="userSpaceOnUse">
<stop stop-color="white"/>
<stop offset="1" stop-color="#BDBDBD"/>
</linearGradient>
</defs>
</svg>
