<svg width="17" height="16" viewBox="0 0 17 16" fill="none" xmlns="http://www.w3.org/2000/svg">
<g clip-path="url(#clip0_1151_15114)">
<mask id="mask0_1151_15114" style="mask-type:alpha" maskUnits="userSpaceOnUse" x="0" y="0" width="17" height="17">
<rect x="0.833252" y="0.333496" width="16" height="16" fill="#D9D9D9"/>
</mask>
<g mask="url(#mask0_1151_15114)">
<path d="M8.16675 12.3332C9.45564 12.3332 10.5556 11.8804 11.4667 10.9748C12.3779 10.0693 12.8334 8.9665 12.8334 7.6665C12.8334 6.37761 12.3779 5.27761 11.4667 4.3665C10.5556 3.45539 9.45564 2.99984 8.16675 2.99984C6.86675 2.99984 5.76397 3.45539 4.85841 4.3665C3.95286 5.27761 3.50008 6.37761 3.50008 7.6665C3.50008 8.9665 3.95286 10.0693 4.85841 10.9748C5.76397 11.8804 6.86675 12.3332 8.16675 12.3332ZM8.16675 10.3332C7.24453 10.3332 6.42508 10.0859 5.70841 9.5915C4.99175 9.09706 4.47786 8.45539 4.16675 7.6665C4.47786 6.88873 4.99175 6.24984 5.70841 5.74984C6.42508 5.24984 7.24453 4.99984 8.16675 4.99984C9.07786 4.99984 9.89175 5.24984 10.6084 5.74984C11.3251 6.24984 11.8445 6.88873 12.1667 7.6665C11.8445 8.45539 11.3251 9.09706 10.6084 9.5915C9.89175 10.0859 9.07786 10.3332 8.16675 10.3332ZM8.16675 9.33317C8.77786 9.33317 9.33897 9.18595 9.85008 8.8915C10.3612 8.59706 10.7612 8.18873 11.0501 7.6665C10.7612 7.15539 10.3612 6.74984 9.85008 6.44984C9.33897 6.14984 8.77786 5.99984 8.16675 5.99984C7.54453 5.99984 6.97786 6.14984 6.46675 6.44984C5.95564 6.74984 5.55564 7.15539 5.26675 7.6665C5.55564 8.18873 5.95564 8.59706 6.46675 8.8915C6.97786 9.18595 7.54453 9.33317 8.16675 9.33317ZM8.16675 8.6665C8.44453 8.6665 8.68064 8.57206 8.87508 8.38317C9.06953 8.19428 9.16675 7.95539 9.16675 7.6665C9.16675 7.38873 9.06953 7.15261 8.87508 6.95817C8.68064 6.76373 8.44453 6.6665 8.16675 6.6665C7.87786 6.6665 7.63897 6.76373 7.45008 6.95817C7.26119 7.15261 7.16675 7.38873 7.16675 7.6665C7.16675 7.95539 7.26119 8.19428 7.45008 8.38317C7.63897 8.57206 7.87786 8.6665 8.16675 8.6665ZM8.16675 13.6665C7.33341 13.6665 6.55286 13.5082 5.82508 13.1915C5.0973 12.8748 4.46397 12.4471 3.92508 11.9082C3.38619 11.3693 2.95841 10.7359 2.64175 10.0082C2.32508 9.28039 2.16675 8.49984 2.16675 7.6665C2.16675 6.84428 2.32508 6.06928 2.64175 5.3415C2.95841 4.61373 3.38619 3.97761 3.92508 3.43317C4.46397 2.88873 5.0973 2.45817 5.82508 2.1415C6.55286 1.82484 7.33341 1.6665 8.16675 1.6665C8.98897 1.6665 9.76397 1.82484 10.4917 2.1415C11.2195 2.45817 11.8556 2.88873 12.4001 3.43317C12.9445 3.97761 13.3751 4.61373 13.6917 5.3415C14.0084 6.06928 14.1667 6.84428 14.1667 7.6665C14.1667 8.37761 14.0501 9.04984 13.8167 9.68317C13.5834 10.3165 13.2612 10.8943 12.8501 11.4165L15.5001 14.0665L14.5501 14.9998L11.9001 12.3665C11.3779 12.7776 10.8001 13.0971 10.1667 13.3248C9.53341 13.5526 8.86675 13.6665 8.16675 13.6665Z" fill="#D0D0D0"/>
</g>
</g>
<defs>
<clipPath id="clip0_1151_15114">
<rect width="16" height="16" fill="white" transform="matrix(-1 0 0 1 16.5 0)"/>
</clipPath>
</defs>
</svg>
